<svg id="Layer_1" data-name="Layer 1" xmlns="http://www.w3.org/2000/svg" viewBox="0 0 35.31 45.11"><defs><style>.cls-1{fill:#5aa8f8;stroke:#5aa8f8;stroke-miterlimit:10;fill-rule:evenodd;}</style></defs><path class="cls-1" d="M17.36,44.61H.5a7,7,0,0,1,2.45-5A58.69,58.69,0,0,1,2.56,8C1.2,5.42.49,3.08.86.5H34.39c.37,2.58-.34,4.92-1.7,7.53a58.69,58.69,0,0,1-.39,31.63,7,7,0,0,1,2.45,5Zm-16-.77H34a7.14,7.14,0,0,0-2.16-3.64l-.33-.32.13-.43A57.84,57.84,0,0,0,32,8.24l-.08-.3L32,7.67a12,12,0,0,0,1.69-6.4H1.56a12,12,0,0,0,1.69,6.4l.14.27-.08.3a57.84,57.84,0,0,0,.38,31.21l.13.43-.32.33a7.14,7.14,0,0,0-2.16,3.64Z" transform="translate(0.03 0)"/><polygon class="cls-1" points="7.61 38.65 8.55 38.65 8.55 41.89 7.61 41.89 7.61 38.65 7.61 38.65"/><polygon class="cls-1" points="12.3 38.65 13.24 38.65 13.24 41.89 12.3 41.89 12.3 38.65 12.3 38.65"/><polygon class="cls-1" points="16.99 38.65 17.93 38.65 17.93 41.89 16.99 41.89 16.99 38.65 16.99 38.65"/><polygon class="cls-1" points="21.68 38.65 22.62 38.65 22.62 41.89 21.68 41.89 21.68 38.65 21.68 38.65"/><polygon class="cls-1" points="26.37 38.65 27.3 38.65 27.3 41.89 26.37 41.89 26.37 38.65 26.37 38.65"/><polygon class="cls-1" points="7.61 2.9 8.55 2.9 8.55 6.14 7.61 6.14 7.61 2.9 7.61 2.9"/><polygon class="cls-1" points="12.3 2.9 13.24 2.9 13.24 6.14 12.3 6.14 12.3 2.9 12.3 2.9"/><polygon class="cls-1" points="16.99 2.9 17.93 2.9 17.93 6.14 16.99 6.14 16.99 2.9 16.99 2.9"/><polygon class="cls-1" points="21.68 2.9 22.62 2.9 22.62 6.14 21.68 6.14 21.68 2.9 21.68 2.9"/><polygon class="cls-1" points="26.37 2.9 27.3 2.9 27.3 6.14 26.37 6.14 26.37 2.9 26.37 2.9"/></svg>