<svg id="Capa_1" data-name="Capa 1" xmlns="http://www.w3.org/2000/svg" viewBox="0 0 36.9 36.95"><defs><style>.cls-1{fill:#5aa8f8;stroke:#5aa8f8;stroke-miterlimit:10;}</style></defs><g id="pig"><path class="cls-1" d="M35.81,35.36a56.51,56.51,0,0,1-10.15-.64,55.14,55.14,0,0,1-13.78-4A47.75,47.75,0,0,1,7.1,28.28,10.18,10.18,0,0,0,3.29,27a1.9,1.9,0,0,1-1.47-.5,1.11,1.11,0,0,1-.15-1,16.12,16.12,0,0,0,.16-4.33,13.51,13.51,0,0,1,0-1.8,3.09,3.09,0,0,1,0-.43L2,19a3.29,3.29,0,0,0,1.26.38c1.93,0,4.23-1.16,5.89-2l.21-.11a27.43,27.43,0,0,0,7.86-6l1-1.18a.55.55,0,0,0,0-.78h0a.56.56,0,0,0-.79,0l-1,1.19a26.21,26.21,0,0,1-7.53,5.69l-.21.11C7.1,17.11,5,18.2,3.31,18.2a2,2,0,0,1-.78-.26,1.32,1.32,0,0,0-1.27-.16,1.68,1.68,0,0,0-.6,1.42,14.8,14.8,0,0,0,0,2,15.32,15.32,0,0,1-.14,4A2.21,2.21,0,0,0,1,27.12,3,3,0,0,0,3.29,28a9.81,9.81,0,0,1,3.24,1.15,45,45,0,0,0,4.89,2.5,56.57,56.57,0,0,0,14.06,4.1,58.84,58.84,0,0,0,8.8.66h1.56a.57.57,0,0,0,.55-.58A.55.55,0,0,0,35.81,35.36Z" transform="translate(0.01 0)"/><path class="cls-1" d="M35.86.62a29.29,29.29,0,0,0-7.71.31.58.58,0,0,0-.44.67.57.57,0,0,0,.56.44h.11a28.31,28.31,0,0,1,7.41-.29.56.56,0,0,0,.6-.52h0a.57.57,0,0,0-.53-.61Z" transform="translate(0.01 0)"/><path class="cls-1" d="M20.35,15.26a.55.55,0,0,0-.69-.36h0c-1.62.57-2.23,0-2.27,0a.56.56,0,0,0-.85.73,2.36,2.36,0,0,0,1.85.69A4.82,4.82,0,0,0,20,16a.55.55,0,0,0,.36-.7A.14.14,0,0,0,20.35,15.26Z" transform="translate(0.01 0)"/><path class="cls-1" d="M13.5,25.22c-.34-1-4.18.07-4.22.09L9,25.39A30.87,30.87,0,0,1,3.29,27a.59.59,0,0,0-.57.57.57.57,0,0,0,.57.56,28,28,0,0,0,6.1-1.63l.25-.08a10,10,0,0,1,3.12-.44.55.55,0,0,0,.4,0A.57.57,0,0,0,13.5,25.22Z" transform="translate(0.01 0)"/><path class="cls-1" d="M34,9.58a.56.56,0,0,0-.63.48h0a3,3,0,0,1-1.7,2.5c-4.59,2-16.37-4.66-21.26-7.66A15,15,0,0,0,17.8,3.67C24.27.59,28,1.67,29.92,3.21a.57.57,0,0,0,.79-.1h0a.57.57,0,0,0-.1-.79c-2.21-1.68-6.31-3-13.29.35-4.15,2-9.18.8-9.23.79a.57.57,0,0,0-.65.32.56.56,0,0,0,.21.69C8.3,4.9,22.12,14,29.65,14a5.93,5.93,0,0,0,2.49-.46,4,4,0,0,0,2.35-3.37A.55.55,0,0,0,34,9.58Z" transform="translate(0.01 0)"/></g></svg>