<svg id="Capa_1" data-name="Capa 1" xmlns="http://www.w3.org/2000/svg" viewBox="0 0 36.97 36.97"><defs><style>.cls-1{fill:#5aa8f8;stroke:#5aa8f8;stroke-miterlimit:10;}</style></defs><g id="rabbit"><path class="cls-1" d="M12,17.4a.55.55,0,0,0-.72.29v0a1.87,1.87,0,0,1-1.08,1.23,2,2,0,0,1-1.44-.35.56.56,0,0,0-.78.12.54.54,0,0,0,.1.77h0a3.33,3.33,0,0,0,1.8.62,2.1,2.1,0,0,0,.61-.09,2.86,2.86,0,0,0,1.82-1.89.55.55,0,0,0-.29-.72Z" transform="translate(0)"/><path class="cls-1" d="M36.18,22.28c-3.48-1.64-8.53-1-8.75-1-2,.28-2.78,0-3.07-.28a.49.49,0,0,1-.23-.36,12.46,12.46,0,0,0-3-7.07.56.56,0,0,0-.79.79A11.47,11.47,0,0,1,23,20.71a1.56,1.56,0,0,0,.58,1.11c.75.65,2.09.84,4,.57,0,0,4.94-.61,8.12.89a.49.49,0,0,0,.24,0,.53.53,0,0,0,.25-1Z" transform="translate(0)"/><path class="cls-1" d="M10.59,35.66C9.5,33.55,9.5,29.2,9.5,29.16a.56.56,0,0,0-1.12,0c0,.19,0,4.65,1.18,7a.57.57,0,0,0,.5.31.58.58,0,0,0,.53-.81Z" transform="translate(0)"/><path class="cls-1" d="M22.65.5H22.5a11.53,11.53,0,0,0-4.78,3c-.17.19-4.09,4.78-2.94,12.81a.56.56,0,0,0,.55.48h.08a.57.57,0,0,0,.48-.64C14.83,8.66,18.5,4.28,18.55,4.26a10.83,10.83,0,0,1,4.1-2.62c.15.1.56.53.56,2.19,0,.09-.58,8.72-4.21,10.79a.57.57,0,0,0,.56,1c4.15-2.37,4.75-11.32,4.78-11.73C24.34.59,22.82.5,22.65.5Z" transform="translate(0)"/><path class="cls-1" d="M17.82,26.46a.56.56,0,0,0-.79-.07h0c-5.61,4.72-9.19.87-9.34.71a.56.56,0,0,0-.47-.19c-1.81.17-3.2-.07-3.92-.68a1.36,1.36,0,0,1-.52-1V23.55a.59.59,0,0,0-.16-.4A.58.58,0,0,0,2.21,23H1.09a.56.56,0,1,0,0,1.12h.55v1.22a2.56,2.56,0,0,0,.93,1.77c.93.79,2.43,1.11,4.49,1a6.89,6.89,0,0,0,4.6,1.8,9.44,9.44,0,0,0,6.08-2.6.56.56,0,0,0,.12-.78Z" transform="translate(0)"/><path class="cls-1" d="M15,10.66c-.23.05-5.81,1.18-7.57,3-.78.71-7.53,7-6.92,10.08a.56.56,0,0,0,.55.45H1.2a.56.56,0,0,0,.44-.66h0c-.36-1.82,3.84-6.51,6.59-9,1.29-1.28,5.5-2.35,7-2.65A.57.57,0,0,0,15,10.77Z" transform="translate(0)"/></g></svg>