<svg id="Capa_1" data-name="Capa 1" xmlns="http://www.w3.org/2000/svg" viewBox="0 0 37.02 36.16"><defs><style>.cls-1{fill:#5aa8f8;stroke:#5aa8f8;stroke-miterlimit:10;}</style></defs><g id="hen"><path class="cls-1" d="M36.46,20.59C32.14,10.88,26.23,7.45,22,6.28a.56.56,0,0,0-.69.39h0a.54.54,0,0,0,.37.68h0c4,1.1,9.56,4.37,13.69,13.68a.6.6,0,0,0,.52.34.89.89,0,0,0,.23,0,.57.57,0,0,0,.31-.74S36.47,20.61,36.46,20.59Z" transform="translate(-0.01 0)"/><path class="cls-1" d="M13.74,21.67C9.52,17.54,3.52,17.32,1.63,17.36,1.7,14,5.12,12,5.16,12a.57.57,0,0,0,.21-.77A.56.56,0,0,0,4.61,11c-.18.1-4.46,2.56-4.08,7a.57.57,0,0,0,.6.52c.08,0,7.22-.54,11.82,4,2.9,2.83,4.2,7.06,3.87,12.56a.56.56,0,0,0,.52.6h0a.56.56,0,0,0,.56-.53C18.29,29.3,16.88,24.78,13.74,21.67Z" transform="translate(-0.01 0)"/><path class="cls-1" d="M17.38,10.92a.56.56,0,0,0-.56.56,1.89,1.89,0,0,1-3.71,0,.56.56,0,0,0-1.12,0,3,3,0,0,0,6,0A.56.56,0,0,0,17.38,10.92Z" transform="translate(-0.01 0)"/><path class="cls-1" d="M15.24,29a6.73,6.73,0,0,1-1.39.41,6.22,6.22,0,0,1-7.14-5.14h0a6.29,6.29,0,0,1,.6-3.79c-.38-.12-.75-.22-1.12-.31a7.36,7.36,0,0,0,6.65,10.45,7.19,7.19,0,0,0,2.63-.5C15.41,29.73,15.33,29.35,15.24,29Z" transform="translate(-0.01 0)"/><path class="cls-1" d="M24.77,3.45a4.35,4.35,0,0,0-6-1.17l-.09.06A4,4,0,0,0,14.39.6a4.39,4.39,0,0,0-2.94,2.75l-.29-.11a5.71,5.71,0,0,0-4.08.39A5.79,5.79,0,0,0,5.56,4.85a6.33,6.33,0,0,0-.91,6.8,8.35,8.35,0,0,0,1,1.86.56.56,0,0,0,.45.22.55.55,0,0,0,.33-.11.57.57,0,0,0,.12-.79,7.28,7.28,0,0,1-.9-1.61A5.16,5.16,0,0,1,6.37,5.6a4.45,4.45,0,0,1,1.2-1,4.69,4.69,0,0,1,3.21-.31,1.31,1.31,0,0,1,.58.34.56.56,0,0,0,.79.09.59.59,0,0,0,.21-.41,3.41,3.41,0,0,1,2.33-2.64A2.91,2.91,0,0,1,18,3.45a.57.57,0,0,0,.45.3.57.57,0,0,0,.5-.21,3,3,0,0,1,2.9-.83,3.4,3.4,0,0,1,2,1.35,4,4,0,0,1,.33,3.15.57.57,0,0,0,.4.67h0a.53.53,0,0,0,.66-.38v0A5,5,0,0,0,24.77,3.45Z" transform="translate(-0.01 0)"/></g></svg>