<svg id="Capa_1" data-name="Capa 1" xmlns="http://www.w3.org/2000/svg" viewBox="0 0 37.03 36.95"><defs><style>.cls-1{fill:#5aa8f8;stroke:#5aa8f8;stroke-miterlimit:10;}</style></defs><g id="duck"><path class="cls-1" d="M24.36,7.68h-1a.58.58,0,0,0-.49.33,1.33,1.33,0,0,1-.78.67,1.78,1.78,0,0,1-1.34-.56A.56.56,0,0,0,20,9a3,3,0,0,0,1.92.86,1.84,1.84,0,0,0,.41-.05,2.32,2.32,0,0,0,1.37-1h.72a.57.57,0,0,0,.49-.64.55.55,0,0,0-.49-.49Z" transform="translate(0.03)"/><path class="cls-1" d="M17.1,14.86a3.78,3.78,0,0,1-1.83-2.36,3.46,3.46,0,0,1,.49-2.39.57.57,0,0,0,0-.66.53.53,0,0,0-.63-.18l-.67.24a3.25,3.25,0,0,0,.11-.42.57.57,0,0,0-.46-.65.57.57,0,0,0-.65.47c-.16.95-1.68,2.1-2.59,2.79l-.15.12a23.34,23.34,0,0,1-4,2.58,16.86,16.86,0,0,1-3.3,1.18,8.35,8.35,0,0,0-1.81.66,2.65,2.65,0,0,0-.88,3.33.54.54,0,0,0,.44.32,11.67,11.67,0,0,0,1.56.1A30.49,30.49,0,0,0,7.5,19.5l.29-.05a24.14,24.14,0,0,0,7.31-2.3c.09,0,2.21-1.17,2.23-1.79A.58.58,0,0,0,17.1,14.86Zm-2.49,1.3a22.92,22.92,0,0,1-7,2.19l-.29,0a25.18,25.18,0,0,1-5.68.44,1.4,1.4,0,0,1,.51-1.61,9.12,9.12,0,0,1,1.52-.53,19.22,19.22,0,0,0,3.52-1.27,24,24,0,0,0,4.15-2.7l.14-.11a17,17,0,0,0,1.79-1.49l1-.34a4.2,4.2,0,0,0-.09,1.93,4.44,4.44,0,0,0,1.7,2.64C15.39,15.68,14.73,16.09,14.61,16.16Z" transform="translate(0.03)"/><path class="cls-1" d="M12.4,13.43a.55.55,0,0,0-.77-.16h0l-.93.61a.54.54,0,0,0-.16.76v0a.56.56,0,0,0,.77.16l.93-.61a.55.55,0,0,0,.16-.77Z" transform="translate(0.03)"/><path class="cls-1" d="M24.13.5C14.55.5,13.25,9.85,13.24,10a.56.56,0,0,0,.49.63.58.58,0,0,0,.63-.49c0-.35,1.19-8.46,9.77-8.46a11.25,11.25,0,0,1,5.2,21.22.56.56,0,0,0-.25.75.58.58,0,0,0,.77.25A12.38,12.38,0,0,0,24.13.5Z" transform="translate(0.03)"/><path class="cls-1" d="M18,17.76c-.11-.32-.31-.92-4.6-.81a.56.56,0,0,0-.54.58h0a.53.53,0,0,0,.51.55h.06a23.08,23.08,0,0,1,2.63,0,12.86,12.86,0,0,0-5.8,17.24c.15.29.3.58.47.86a.55.55,0,0,0,.48.27.6.6,0,0,0,.29-.08.57.57,0,0,0,.19-.77,11.73,11.73,0,0,1,4.14-16.06,11.46,11.46,0,0,1,1.65-.81l.12-.07A.77.77,0,0,0,18,17.76Z" transform="translate(0.03)"/></g></svg>