<svg id="Capa_1" data-name="Capa 1" xmlns="http://www.w3.org/2000/svg" viewBox="0 0 37.02 37.52"><defs><style>.cls-1{fill:#5aa8f8;stroke:#5aa8f8;stroke-miterlimit:10;}</style></defs><path class="cls-1" d="M36.45,21.92C32.13,12.21,26.22,8.79,22,7.62a.57.57,0,0,0-.69.39.56.56,0,0,0,.39.69h0c4,1.1,9.56,4.37,13.7,13.68a.57.57,0,0,0,.51.34.45.45,0,0,0,.23,0,.58.58,0,0,0,.32-.74Z" transform="translate(0 -0.01)"/><path class="cls-1" d="M13.74,23C9.51,18.91,3.51,18.69,1.62,18.73c.07-3.4,3.49-5.38,3.53-5.4a.55.55,0,0,0,.21-.76h0a.56.56,0,0,0-.75-.22h0c-.18.1-4.45,2.56-4.08,7a.58.58,0,0,0,.61.52c.07,0,7.21-.54,11.82,4,2.9,2.83,4.2,7.06,3.86,12.56a.57.57,0,0,0,.53.6h0a.56.56,0,0,0,.56-.53C18.29,30.64,16.88,26.1,13.74,23Z" transform="translate(0 -0.01)"/><path class="cls-1" d="M17.37,15.45a.56.56,0,0,1-.56-.56,1.89,1.89,0,0,0-3.71,0,.56.56,0,0,1-1.12,0,3,3,0,0,1,5.95,0,.56.56,0,0,1-.56.56Z" transform="translate(0 -0.01)"/><path class="cls-1" d="M15.23,30.33a6.64,6.64,0,0,1-1.38.41,6.19,6.19,0,0,1-6.54-8.93c-.38-.12-.76-.22-1.12-.31A7.35,7.35,0,0,0,12.83,32a6.94,6.94,0,0,0,1.2-.1,7.34,7.34,0,0,0,1.44-.4C15.4,31.1,15.32,30.69,15.23,30.33Z" transform="translate(0 -0.01)"/><path class="cls-1" d="M3.28,9.47A4.37,4.37,0,0,1,7.87,5.35H8a4,4,0,0,1,2.78-3.68,4.36,4.36,0,0,1,3.94.85,2.35,2.35,0,0,1,.19-.25A5.69,5.69,0,0,1,18.57.51,5.49,5.49,0,0,1,20.5.77,6.34,6.34,0,0,1,24.74,6.1a8.84,8.84,0,0,1,.07,2.12.57.57,0,0,1-.27.43.62.62,0,0,1-.35.08.57.57,0,0,1-.45-.63,7.57,7.57,0,0,0-.07-1.84,5.14,5.14,0,0,0-3.5-4.45,4.26,4.26,0,0,0-1.54-.22A4.65,4.65,0,0,0,15.74,3a1.38,1.38,0,0,0-.32.58A.54.54,0,0,1,15,4a.54.54,0,0,1-.56-.19,3.42,3.42,0,0,0-3.38-1A2.92,2.92,0,0,0,9.14,6.05a.55.55,0,0,1-.76.56,3,3,0,0,0-2.91.79,3.33,3.33,0,0,0-1,2.18A4,4,0,0,0,5.74,12.4a.56.56,0,0,1,0,.79.57.57,0,0,1-.8,0h0A5,5,0,0,1,3.28,9.47Z" transform="translate(0 -0.01)"/></svg>