<svg id="Capa_1" data-name="Capa 1" xmlns="http://www.w3.org/2000/svg" viewBox="0 0 32.06 37.01"><defs><style>.cls-1{fill:#5aa8f8;stroke:#5aa8f8;stroke-miterlimit:10;}</style></defs><g id="turkey"><path class="cls-1" d="M12.17,14.86A14.8,14.8,0,0,0,1.75,16.24,8,8,0,0,1,5.31,11.7,5.31,5.31,0,0,1,6.78,11a.56.56,0,0,0-.31-1.08h0a6.6,6.6,0,0,0-1.73.79C4.55,10.84.5,13.2.5,17.42a.58.58,0,0,0,.33.51.49.49,0,0,0,.24,0,.54.54,0,0,0,.36-.14S5.3,14.61,12,16a.56.56,0,1,0,.22-1.09Z" transform="translate(0 0)"/><path class="cls-1" d="M8.36,11.9a.56.56,0,0,0-.68-.41h0l-1.13.28a.56.56,0,0,0-.41.68h0a.59.59,0,0,0,.55.43h.13L8,12.6a.56.56,0,0,0,.42-.67Z" transform="translate(0 0)"/><path class="cls-1" d="M19.63,7.25h0a.56.56,0,0,0-.54.58h0A1.29,1.29,0,0,1,18.28,9,1.78,1.78,0,0,1,16.4,8.8a.56.56,0,0,0-.79,0,.57.57,0,0,0,0,.8,2.73,2.73,0,0,0,1.85.68,3.07,3.07,0,0,0,1.26-.27A2.38,2.38,0,0,0,20.21,7.8a.56.56,0,0,0-.57-.55Z" transform="translate(0 0)"/><path class="cls-1" d="M7.13,14.85a.56.56,0,0,0-.63.48h0c-.79,5.61-1.39,7.59-1.7,8.28-.61-1.35-.46-5.28-.2-7.58a.55.55,0,0,0-.49-.62.58.58,0,0,0-.63.5c-.07.67-.7,6.59.45,8.46a1,1,0,0,0,.83.67h.07c.58,0,1.46-.13,2.78-9.56a.56.56,0,0,0-.48-.63Z" transform="translate(0 0)"/><path class="cls-1" d="M17,14.7a.56.56,0,0,0-1.09.29h0c2.55,9.57.83,14.62-1.07,17.17a7.57,7.57,0,0,1-5.37,3.22A4.2,4.2,0,0,1,6.11,34a4.05,4.05,0,0,1-.89-3.47C5.49,29,7,26.89,8.36,24.87c2.16-3.08,4.19-6,3.33-8.16-.43-1.09-1.5-1.8-3.28-2.17a.56.56,0,0,0-.66.44.55.55,0,0,0,.43.66h0c1.36.28,2.19.78,2.47,1.49.63,1.6-1.41,4.52-3.21,7.1-1.55,2.21-3,4.3-3.33,6A5.18,5.18,0,0,0,5.26,34.7a5.26,5.26,0,0,0,4,1.81h.17a8.62,8.62,0,0,0,6.24-3.67C17.75,30.08,19.63,24.7,17,14.7Z" transform="translate(0 0)"/><path class="cls-1" d="M10.07,6.7a7.28,7.28,0,0,0-3.65.65,5.81,5.81,0,0,0-2.63,4.08.58.58,0,0,0,.49.63h.07a.57.57,0,0,0,.56-.49A4.69,4.69,0,0,1,7,8.31,6.27,6.27,0,0,1,10,7.8a.54.54,0,0,0,.58-.5v0A.57.57,0,0,0,10.07,6.7Z" transform="translate(0 0)"/><path class="cls-1" d="M30.62,7.41C28.86,3,24.68.57,18.51.5h-.16A11.93,11.93,0,0,0,7.67,6.7a.56.56,0,0,0,.16.78.55.55,0,0,0,.77-.16.61.61,0,0,0,.07-.14,10.74,10.74,0,0,1,9.66-5.59h.15c4,0,9.09,1.15,11.07,6.19,2.24,5.68-.32,11.06-2.83,14.54-3.8,4.65-5.25,8.73-4.84,13.62a.57.57,0,0,0,.56.52h0a.56.56,0,0,0,.51-.61h0c-.38-4.58,1-8.41,4.61-12.84C31.5,17.7,32.54,12.28,30.62,7.41Z" transform="translate(0 0)"/></g></svg>