<svg id="Layer_1" data-name="Layer 1" xmlns="http://www.w3.org/2000/svg" viewBox="0 0 48.16 38.16"><defs><style>.cls-1,.cls-2{fill:#5aa8f8;stroke:#5aa8f8;stroke-miterlimit:10;}.cls-2{fill-rule:evenodd;}</style></defs><path class="cls-1" d="M23.24,11.7a.76.76,0,0,0-1,.3,1.94,1.94,0,0,1-1,.86,1.76,1.76,0,0,1-1.38-.36.75.75,0,0,0-1,.14l-.84,1A.76.76,0,0,0,18,14.71h0a.78.78,0,0,0,.5.19.72.72,0,0,0,.58-.28l.43-.51a3,3,0,0,0,2,.24,3.43,3.43,0,0,0,2-1.62.76.76,0,0,0-.31-1Z" transform="translate(-0.01 0.03)"/><path class="cls-2" d="M31,16.18c-1.54,4-1.31,7.12.55,11.08,1.06,2.23,2.86,4.56,5.56,4.61s5.13-2.2,6.48-4.39a15.67,15.67,0,0,0,1.89-11A16.79,16.79,0,0,0,33.09,3.18c-5-1.42-11.65-1-15.46,2.92C15,8.83,12.81,14.92,9.28,16.36c-2.2.83-4.75,1.44-6.81,2.63-.26,1.37.55,4.31.83,5.49a3.51,3.51,0,0,0,2.05,2.21,8.39,8.39,0,0,0,5,.43,18,18,0,0,1,9.58.51A13.41,13.41,0,0,1,26.64,32a5.34,5.34,0,0,1,.82,4.58l-.22.94-1.88-.43.21-.94a3.4,3.4,0,0,0-.44-2.94,11.49,11.49,0,0,0-5.83-3.77A16.28,16.28,0,0,0,10.71,29a10.2,10.2,0,0,1-6.17-.58,5.42,5.42,0,0,1-3.1-3.52C1,23.06.06,19.82.77,18l.12-.3.27-.17c2.28-1.41,5-2,7.44-3,1.67-.68,3.39-3.59,4.32-5.08a28.43,28.43,0,0,1,3.34-4.73C20.59.27,28-.33,33.65,1.3a18.66,18.66,0,0,1,13.7,14.88,17.58,17.58,0,0,1-2.14,12.36c-1.74,2.81-4.69,5.39-8.18,5.32s-5.86-2.78-7.25-5.73c-2.11-4.45-2.34-8.13-.58-12.67v-.14c1.34-2.27,2.82-5.46-.34-6.86L28,8.07l.78-1.77.89.39c4.39,1.94,3.23,6.17,1.26,9.54Z" transform="translate(-0.01 0.03)"/></svg>