<svg id="Capa_1" data-name="Capa 1" xmlns="http://www.w3.org/2000/svg" viewBox="0 0 36.7 37.01"><defs><style>.cls-1{fill:#5aa8f8;stroke:#5aa8f8;stroke-miterlimit:10;}</style></defs><g id="veal"><path class="cls-1" d="M25.28.57a.55.55,0,0,0-.58,0L21.16,2.92C20,1.68,16.73,1.61,16,1.61c-2.38,0-4.6,3.61-5.08,4.44-.77.5-4.59,3.15-5,6.73s-1,4.81-4.19,9.44c-2,2.93-1.1,4.31-.08,5.18l.22.19c.56.39,2.85,1.87,4.63,1.87A2.1,2.1,0,0,0,8,29,7.83,7.83,0,0,0,10,27.28a.56.56,0,0,0-.85-.73A7,7,0,0,1,7.28,28a.45.45,0,0,0-.14.1c-.72.72-3.23-.44-4.62-1.38l-.21-.18c-.53-.46-1.42-1.22.28-3.7C5.85,18.11,6.51,16.62,7,12.94c.42-3.35,4.59-6,4.63-6a.64.64,0,0,0,.2-.2c.62-1.12,2.57-4,4.17-4s4.22.4,4.45,1.14a.55.55,0,0,0,.35.36.59.59,0,0,0,.5-.06l3-2a5.94,5.94,0,0,1-4.49,5.07.57.57,0,0,0-.43.67.55.55,0,0,0,.66.43h0c5.44-1.21,5.51-7.24,5.51-7.3A.56.56,0,0,0,25.28.57Z" transform="translate(-0.05 0.01)"/><path class="cls-1" d="M35.88,6.15C32.47,5,24.28,4.5,23.93,4.44a.56.56,0,0,0-.6.52h0a.55.55,0,0,0,.5.6h0c.08,0,8.41.57,11.67,1.66h.18a.56.56,0,0,0,.53-.38A.57.57,0,0,0,35.88,6.15Z" transform="translate(-0.05 0.01)"/><path class="cls-1" d="M30.58,35.56a107,107,0,0,0-10-9.63c-1.13-.89-8,.61-12,1.59a.56.56,0,1,0,.27,1.09c4.71-1.15,10.27-2.16,11-1.79a105.73,105.73,0,0,1,9.9,9.5.6.6,0,0,0,.42.18.54.54,0,0,0,.38-.15A.56.56,0,0,0,30.58,35.56Z" transform="translate(-0.05 0.01)"/><path class="cls-1" d="M16.4,12.42a.56.56,0,0,0-.79,0,4,4,0,0,1-3.22.75.57.57,0,0,0-.61.51.56.56,0,0,0,.48.61h0c.26,0,.51,0,.77,0a4.75,4.75,0,0,0,3.37-1.13A.56.56,0,0,0,16.4,12.42Z" transform="translate(-0.05 0.01)"/><path class="cls-1" d="M33,9a.55.55,0,0,0-.28-.3c-5.46-2.52-8.42-.65-9.17,0H22.38a.56.56,0,0,0,0,1.12h1.38a.57.57,0,0,0,.39-.16c.1-.1,2.52-2.35,7.83,0,0,.55-.38,2.18-4.35,4.16-1.22.61-3.66-1.11-4.43-1.76a.57.57,0,0,0-.79.06h0a.57.57,0,0,0,.06.79c.3.26,2.59,2.17,4.56,2.17a2.68,2.68,0,0,0,1.11-.25C34,11.88,33.12,9.31,33,9Z" transform="translate(-0.05 0.01)"/></g></svg>