<svg id="Capa_1" data-name="Capa 1" xmlns="http://www.w3.org/2000/svg" viewBox="0 0 37.75 36.88"><defs><style>.cls-1{fill:#5aa8f8;stroke:#5aa8f8;stroke-miterlimit:10;}</style></defs><g id="quail_bird" data-name="quail bird"><path class="cls-1" d="M16.25,6.12a.58.58,0,0,0-.57.57h0a1.35,1.35,0,0,1-2.68,0,.56.56,0,1,0-1.12,0h0a2.47,2.47,0,0,0,4.93,0A.57.57,0,0,0,16.25,6.12Z" transform="translate(0.04 0.01)"/><path class="cls-1" d="M11.9,35.43C8.9,32,9.74,27,10.43,23.05c.19-1.11.37-2.16.45-3.08a9,9,0,0,0-2-6.93.75.75,0,0,0-.07-.12,1.77,1.77,0,0,1-.44-1.44,2.16,2.16,0,0,1,1-1.2.58.58,0,0,0,.24-.78.38.38,0,0,0-.09-.13c-2-2-1.62-3.42-1.6-3.47a.55.55,0,0,0-.08-.51.56.56,0,0,0-.45-.23C1.82,5.16.49,9.57.48,9.62a.56.56,0,0,0,.08.47.52.52,0,0,0,.41.24c.39,0,9.48,1,8.75,9.54-.08.88-.25,1.91-.44,3C8.55,27.09,7.65,32.34,11,36.18a.57.57,0,0,0,.42.19.47.47,0,0,0,.37-.14.55.55,0,0,0,.11-.78ZM7.28,11.22a1.06,1.06,0,0,0,0,.31,13.62,13.62,0,0,0-5.37-2.2,5.65,5.65,0,0,1,4.94-3A5.28,5.28,0,0,0,8.3,9.7,2.8,2.8,0,0,0,7.28,11.22Z" transform="translate(0.04 0.01)"/><path class="cls-1" d="M34,23a18.38,18.38,0,0,1-6.41-6.84c-.39-.65-.79-1.31-1.27-2-3.58-5.27-5.84-4.47-8.24-3.63a6.43,6.43,0,0,1-5.49,0,.58.58,0,0,0-.71.21.57.57,0,0,0,.1.73s4.47,4.08,3.84,8.43c-.38,2.6-2.49,4.83-6.28,6.65a.57.57,0,0,0-.27.75.56.56,0,0,0,.51.32.5.5,0,0,0,.24-.06c4.15-2,6.48-4.51,6.91-7.51.46-3.21-1.37-6.15-2.76-7.87a8.31,8.31,0,0,0,4.29-.64c2.23-.78,3.84-1.35,6.93,3.2.46.68.86,1.33,1.24,2A19.49,19.49,0,0,0,33.42,24a.56.56,0,0,0,.78-.16A.54.54,0,0,0,34,23Z" transform="translate(0.04 0.01)"/><path class="cls-1" d="M36.08,14c-2.11-.53-3.53-3.11-4.14-4.22A17.41,17.41,0,0,0,15.59.52C9.31.87,7,5.26,6.88,5.45a.55.55,0,0,0,.25.75A.54.54,0,0,0,7.86,6l0,0C8,5.8,10,2,15.69,1.64a16.24,16.24,0,0,1,15.22,8.62c.68,1.23,2.27,4.11,4.85,4.76h.14A.56.56,0,0,0,36,13.91Z" transform="translate(0.04 0.01)"/><path class="cls-1" d="M29.09,11.94c-3.32-5.1-7.32-7.75-12.23-8.13a.52.52,0,0,0-.6.44.22.22,0,0,0,0,.08.57.57,0,0,0,.52.6c4.54.35,8.26,2.84,11.37,7.62a.6.6,0,0,0,.47.26.5.5,0,0,0,.31-.1A.55.55,0,0,0,29.1,12Z" transform="translate(0.04 0.01)"/><path class="cls-1" d="M7.81,7.74H6.69a.57.57,0,0,0-.49.64.55.55,0,0,0,.49.49H7.81a.57.57,0,0,0,.49-.64A.55.55,0,0,0,7.81,7.74Z" transform="translate(0.04 0.01)"/></g></svg>