<svg width="129" height="68" viewBox="0 0 129 68" fill="none" xmlns="http://www.w3.org/2000/svg">
<g filter="url(#filter0_d_52_182)">
<path fill-rule="evenodd" clip-rule="evenodd" d="M5.88683 36.0352C5.38947 36.038 4.93203 36.2981 4.68481 36.7171C4.43759 37.1361 4.43856 37.6516 4.68675 38.0697C4.68675 38.0697 9.5796 46.291 19.99 52.6436C30.3993 58.9959 46.4587 63.4943 68.4251 56.3655C68.4251 56.3655 68.4261 56.3645 68.428 56.3645C85.7168 50.7888 97.4433 49.2924 105.725 49.458C114.008 49.6235 118.827 51.4169 122.669 52.6409L122.67 52.64C123.296 52.8396 123.981 52.5851 124.312 52.0309C124.643 51.4766 124.529 50.7738 124.039 50.3444C114.881 42.3141 105.893 39.0234 96.9324 38.3028C87.9712 37.5811 79.0783 39.3631 69.8408 41.2511C51.3684 45.0261 31.6039 49.326 6.55789 36.1994V36.1984C6.35252 36.0906 6.12185 36.0348 5.88826 36.0357L5.88683 36.0352Z" fill="url(#paint0_linear_52_182)"/>
<path fill-rule="evenodd" clip-rule="evenodd" d="M54.675 0C53.9022 0.0132419 53.0856 0.115393 52.23 0.325386V0.32444H52.2291C49.0727 1.10004 43.4159 3.29162 37.2976 5.87767C31.1794 8.46468 24.6876 11.4309 20.1705 13.7179V13.7188C20.1696 13.7198 20.1696 13.7198 20.1686 13.7198C18.2249 14.7063 16.8906 15.9662 16.18 17.3669C15.4685 18.7677 15.4247 20.3161 16.0106 21.6005C17.1825 24.1693 20.6299 25.4093 24.4239 24.1315C36.3041 20.1297 43.0966 17.6495 49.9583 15.4939C49.9593 15.4939 49.9603 15.493 49.9612 15.493C51.9478 14.8735 52.5423 15.0532 52.5162 15.0371C52.5035 15.0286 52.5395 15.0371 52.6602 15.266C52.778 15.4892 52.9366 15.8799 53.1839 16.3481C53.9343 17.8671 54.3236 18.6465 54.5961 19.1818C46.9196 24.9099 40.6673 29.1965 32.0769 35.2359L32.0749 35.2369C31.634 35.5471 31.4189 36.0787 31.525 36.5989C31.6301 37.1182 32.037 37.5306 32.5664 37.6545C32.5664 37.6545 43.378 40.2008 55.7046 37.6762C67.7191 35.2161 69.7065 34.3533 80.0829 33.0727V33.0717C80.1004 33.0727 80.118 33.0727 80.1345 33.0717C80.4869 33.015 80.99 32.9403 81.5438 32.718C82.0986 32.4948 82.7809 32.0549 83.1196 31.2793C83.4583 30.5037 83.36 29.6109 82.9979 28.734C82.6359 27.8572 82.0071 26.9047 81.0144 25.7251H81.0153C81.0153 25.7251 81.0144 25.7251 81.0144 25.7242C79.1339 23.4958 74.9828 18.6152 71.1081 14.0458C67.2333 9.4764 63.5776 5.14235 62.8993 4.27888V4.27982C62.8974 4.27699 62.8945 4.27415 62.8925 4.27131C62.0613 3.23086 60.8457 1.90857 59.0773 1.00146C57.8607 0.377203 56.3754 -0.0219631 54.6751 0.00735995L54.675 0Z" fill="url(#paint1_linear_52_182)"/>
<path fill-rule="evenodd" clip-rule="evenodd" d="M96.7971 0.486694C89.2793 0.486694 83.1426 6.43606 83.1426 13.7562C83.1426 21.0639 89.2773 27.0256 96.7971 27.0256C104.329 27.0256 110.452 21.062 110.452 13.7562C110.452 6.438 104.328 0.486694 96.7971 0.486694Z" fill="url(#paint2_linear_52_182)"/>
</g>
<defs>
<filter id="filter0_d_52_182" x="0.5" y="0" width="128" height="68" filterUnits="userSpaceOnUse" color-interpolation-filters="sRGB">
<feFlood flood-opacity="0" result="BackgroundImageFix"/>
<feColorMatrix in="SourceAlpha" type="matrix" values="0 0 0 0 0 0 0 0 0 0 0 0 0 0 0 0 0 0 127 0" result="hardAlpha"/>
<feOffset dy="4"/>
<feGaussianBlur stdDeviation="2"/>
<feComposite in2="hardAlpha" operator="out"/>
<feColorMatrix type="matrix" values="0 0 0 0 0 0 0 0 0 0 0 0 0 0 0 0 0 0 0.25 0"/>
<feBlend mode="normal" in2="BackgroundImageFix" result="effect1_dropShadow_52_182"/>
<feBlend mode="normal" in="SourceGraphic" in2="effect1_dropShadow_52_182" result="shape"/>
</filter>
<linearGradient id="paint0_linear_52_182" x1="4.5" y1="48.0176" x2="124.5" y2="48.0176" gradientUnits="userSpaceOnUse">
<stop stop-color="#191E88"/>
<stop offset="1" stop-color="#00AC00"/>
</linearGradient>
<linearGradient id="paint1_linear_52_182" x1="15.6055" y1="19.3963" x2="83.328" y2="19.3963" gradientUnits="userSpaceOnUse">
<stop stop-color="#191E88"/>
<stop offset="1" stop-color="#00AC00"/>
</linearGradient>
<linearGradient id="paint2_linear_52_182" x1="83.1426" y1="13.7562" x2="110.452" y2="13.7562" gradientUnits="userSpaceOnUse">
<stop stop-color="#191E88"/>
<stop offset="1" stop-color="#00AC00"/>
</linearGradient>
</defs>
</svg>
