<svg id="Layer_1" data-name="Layer 1" xmlns="http://www.w3.org/2000/svg" viewBox="0 0 2267.73 2267.73"><defs><style>.cls-1{fill:#fff;}.cls-1,.cls-2,.cls-3{fill-rule:evenodd;}.cls-2{fill:#074fa3;}.cls-3{fill:#f58220;}</style></defs><path class="cls-1" d="M-504.59,189.1c-45.77-11.52-84.25-32.76-108.26-77.11-25.1-46.35-30.33-95.31-36.36-146.56-3.06-26-6.84-71.12-30.31-87.78l0,0s-.27-.18-.65-.46c-.08-.06-.67-.5-1.39-1.16A18,18,0,0,1-685-146a17.76,17.76,0,0,1,23.15-7.23l.1.05a41.29,41.29,0,0,0,8.4,2.82c26.34,5.87,67.18-13.68,91-24,44.42-19.22,87.67-36.91,136.89-38.25,50.47-1.38,88.16,21.41,121,55.33l23.18-23.23c-33.91-32.87-56.68-70.55-55.31-121,1.44-52.69,21.4-97.7,41.8-145.11,10.37-24.08,29.63-65,17.65-91.16l0,0A17.77,17.77,0,0,1-270-561.08a18,18,0,0,1,22,3.29c.67.73,1.12,1.33,1.18,1.41.28.38.47.64.47.66l.05.07A42.35,42.35,0,0,0-240.4-549c19.88,18.25,65,21.74,90.83,24.73,48.07,5.56,94.38,11.87,137.68,35.32,44.35,24,65.59,62.51,77.1,108.28l31.69-8.59c-12.79-45.25-13.58-89.54,12.65-132.23,27.59-44.91,67.37-73.92,108.75-104.77,21-15.68,58.21-41.51,60.87-70.18,1.74-21.36,33.79-22.75,35.61,0a42.17,42.17,0,0,0,1.76,8.68c8.08,25.75,45.44,51.34,66.29,66.83,38.85,28.86,75.8,57.47,101.57,99.43,26.23,42.69,25.44,87,12.65,132.23l31.68,8.59c11.52-45.77,32.76-84.26,77.11-108.28,46.35-25.1,95.31-30.33,146.57-36.36,26-3.06,71.12-6.84,87.78-30.3l0,0s.17-.25.44-.61a14.21,14.21,0,0,1,1.1-1.34,17.91,17.91,0,0,1,22.15-3.47,17.75,17.75,0,0,1,7.17,23.2l0,.06a42,42,0,0,0-2.81,8.37c-5.87,26.34,13.68,67.18,24,91,19.22,44.42,36.9,87.67,38.25,136.9,1.37,50.46-21.41,88.14-55.32,121l23.2,23.21c32.87-33.92,70.55-56.7,121-55.32,52.69,1.44,97.7,21.39,145.1,41.8,24.1,10.37,65,29.65,91.22,17.62l.09-.05A17.76,17.76,0,0,1,1279-146a18,18,0,0,1-3.32,22,15,15,0,0,1-1.44,1.2c-.39.3-.66.48-.68.49l0,0a41.26,41.26,0,0,0-6.61,5.84c-18.26,19.88-21.75,65-24.73,90.82-5.57,48.08-11.88,94.38-35.33,137.68-24,44.36-62.51,65.59-108.29,77.11l8.6,31.69c45.25-12.79,89.54-13.58,132.23,12.64,44.92,27.59,73.92,67.38,104.77,108.75,15.69,21,41.51,58.22,70.19,60.87,21.42,1.76,22.67,33.78,0,35.62a41.56,41.56,0,0,0-8.7,1.75c-25.75,8.09-51.34,45.44-66.83,66.29-28.85,38.86-57.47,75.8-99.43,101.58-42.7,26.23-87,25.44-132.25,12.64l-8.56,31.7c45.77,11.51,84.25,32.75,108.27,77.1,25.1,46.35,30.33,95.31,36.36,146.56,3.06,26.05,6.84,71.13,30.32,87.79l0,0s.27.18.63.45a16.21,16.21,0,0,1,1.37,1.14,18,18,0,0,1,3.4,22.09,17.76,17.76,0,0,1-23.2,7.17l-.06,0a41.62,41.62,0,0,0-8.37-2.81c-26.34-5.87-67.18,13.68-91,24-44.42,19.22-87.67,36.91-136.89,38.25-50.46,1.38-88.14-21.39-121-55.3l-23.24,23.17c33.92,32.87,56.71,70.56,55.33,121C929,1196,909.08,1241,888.68,1288.37c-10.38,24.1-29.66,65.05-17.63,91.21l.05.09a17.77,17.77,0,0,1-7.26,23.18,18,18,0,0,1-22-3.38,18.4,18.4,0,0,1-1.18-1.42c-.29-.39-.47-.66-.48-.67l0,0a41.51,41.51,0,0,0-5.83-6.6c-19.87-18.25-65-21.74-90.82-24.73-48.08-5.56-94.38-11.87-137.68-35.32-44.35-24-65.59-62.5-77.11-108.27L497,1231c12.8,45.26,13.59,89.55-12.64,132.25C456.81,1408.14,417,1437.15,375.65,1468c-21,15.68-58.22,41.51-60.87,70.19-1.75,21.22-33.76,22.86-35.62,0a41.47,41.47,0,0,0-1.75-8.69c-8.09-25.75-45.44-51.34-66.29-66.83-38.86-28.86-75.8-57.47-101.58-99.43-26.23-42.7-25.43-87-12.64-132.26l-31.69-8.54c-11.52,45.76-32.75,84.24-77.1,108.26-46.35,25.1-95.31,30.32-146.57,36.35-26,3.07-71.13,6.84-87.78,30.32l0,.05s-.18.28-.47.66a16.73,16.73,0,0,1-1.17,1.4,18,18,0,0,1-22,3.35,17.75,17.75,0,0,1-7.23-23.13l.05-.11a42.16,42.16,0,0,0,2.83-8.4c5.87-26.34-13.68-67.19-24-91-19.22-44.42-36.91-87.67-38.25-136.9-1.38-50.47,21.41-88.15,55.33-121l-23.23-23.19c-32.86,33.91-70.54,56.69-121,55.31-52.69-1.44-97.7-21.39-145.1-41.8-24.09-10.37-65-29.63-91.18-17.64l0,0A17.76,17.76,0,0,1-685,987.79a18,18,0,0,1,3.32-22c.73-.67,1.33-1.12,1.41-1.18.38-.29.65-.47.66-.48l.06,0a41.77,41.77,0,0,0,6.62-5.84c18.26-19.88,21.75-65,24.73-90.82,5.57-48.08,11.88-94.38,35.32-137.68,24-44.36,62.51-65.59,108.28-77.11l-8.57-31.69c-45.26,12.79-89.55,13.59-132.25-12.64-44.91-27.59-73.91-67.38-104.76-108.76-15.69-21-41.52-58.21-70.19-60.86-21-1.75-23-33.75,0-35.62a42.34,42.34,0,0,0,8.7-1.75c25.75-8.09,51.34-45.44,66.83-66.3,28.85-38.85,57.47-75.79,99.43-101.57,42.69-26.23,87-25.43,132.25-12.64l8.55-31.69Z" transform="translate(836.89 713)"/><path class="cls-1" d="M295.17-303.93c402.05,0,728.09,326.05,728.09,728.1s-326,728.09-728.09,728.09-728.1-326-728.1-728.09,326.05-728.1,728.1-728.1Z" transform="translate(836.89 713)"/><path class="cls-2" d="M470.55-104.67a237.42,237.42,0,0,0-9.08,65.26,237.4,237.4,0,0,0,9.08,65.25,239.7,239.7,0,0,0-110-65.25,239.72,239.72,0,0,0,110-65.26ZM297-277.76c178.09,0,340.58,67.06,463.77,177.32l2,1.76c1.94,1.76,3.86,3.53,5.79,5.3q4.25,3.9,8.44,7.87l1.13,1.08a698.16,698.16,0,0,1,183.6,292.6h-.87a696.23,696.23,0,0,1,22.63,92.49h0q1,5.55,1.83,11.11h0q2.55,16.25,4.34,32.73,1.95,18.11,3,36.47l0,0q.6,10.61.88,21.28h0c.11,4.14.14,8.3.17,12.45l.05,0q0,3.09,0,6.18a699.74,699.74,0,0,1-33.82,215.43h.89a698.31,698.31,0,0,1-183,290.16l-.3.28q-4.63,4.41-9.36,8.74c-1.72,1.58-3.45,3.17-5.18,4.73L760,942.8C636.92,1052.68,474.72,1119.48,297,1119.48c-178,0-340.48-67-463.66-177.23l-2.05-1.82q-2.91-2.62-5.8-5.3-4.28-3.93-8.5-7.93l-1.08-1A698.34,698.34,0,0,1-366.86,636.29h.87a696.92,696.92,0,0,1-23.48-95h0q-1-5.54-1.83-11.09h0q-2.7-17.19-4.55-34.65-1.8-17.06-2.77-34.36l0,0q-.6-10.61-.89-21.29h0c-.09-3.15-.15-6.31-.2-9.47V427.1c0-.79,0-1.58,0-2.37v-6.81h0V416q.06-7,.24-13.89h0q.27-10.69.88-21.31l0,0q1-17.16,2.73-34.1l.07-.75v-.08l.06-.57q1.81-16.86,4.43-33.49h0q.88-5.56,1.84-11.11h0a696.26,696.26,0,0,1,22.64-92.49h-.9A698.36,698.36,0,0,1-173.7-94.2q2.07-1.9,4.17-3.8c1.36-1.23,2.74-2.45,4.12-3.67,123-109.53,285-176.09,462.38-176.09ZM980.82,208.17C890.21-83.4,618.32-295.21,297-295.21S-296.31-83.41-386.92,208.17h-1.37A720.34,720.34,0,0,0-420.21,420v1.57a724.51,724.51,0,0,0,10.86,124.51c.09.55.19,1.1.29,1.65l.05.29h0l.18,1h0a717.19,717.19,0,0,0,21.4,87.28H-386c91.46,290.15,362.64,500.65,683,500.65S888.51,926.45,980,636.29h1.41a720.38,720.38,0,0,0,32.78-215.43,725,725,0,0,0-11-126.21l-.08-.43-.23-1.31h0a716.17,716.17,0,0,0-20.59-84.74Zm-22.74,53.54q3.09,12.94,5.69,26.08a223.66,223.66,0,0,1-41.45,7.47,223,223,0,0,1,34.23-38.37c.4,1.61.79,3.21,1.18,4.82Zm9,44,.05.29-.56-.15.51-.14Zm3.1,20.14q3,21.6,4.69,43.6a222.64,222.64,0,0,1-52.51-53,222.77,222.77,0,0,1,47.82,9.36Zm6,66.42c.39,9.48.64,19,.64,28.55,0,2.88-.08,5.74-.11,8.61l-.21.18q-.13,10.1-.57,20.11a241.52,241.52,0,0,0-42.49,34.06,237.49,237.49,0,0,0,0-125.72,241.17,241.17,0,0,0,42.74,34.21ZM-365.36,575c-1.59-6.91-3.05-13.88-4.43-20.87a221.79,221.79,0,0,1,40.86-7.41,221.66,221.66,0,0,1-33.71,37.95q-1.2-4.81-2.32-9.67Zm-7.72-38.83-.05-.25.48.13-.43.12Zm-3.11-20.1q-3-21.46-4.68-43.33a222.34,222.34,0,0,1,52,52.64,221.85,221.85,0,0,1-47.28-9.31Zm-6-66.19c-.41-9.62-.66-19.28-.66-29s.25-19.24.65-28.79a241,241,0,0,0,44.58-36.36,237,237,0,0,0-9.1,65.25,237,237,0,0,0,9.1,65.25,240.85,240.85,0,0,0-44.57-36.35Zm1.27-80.66c1.1-14.58,2.69-29,4.68-43.32a221.74,221.74,0,0,1,47.28-9.32,222.34,222.34,0,0,1-52,52.64Zm7.73-63.17,0-.27.47.13-.51.14Zm3.33-18.23c.58-2.91,1.17-5.82,1.78-8.71l.39-.26q2.31-10.87,5-21.61a221.55,221.55,0,0,1,33.76,38,223.34,223.34,0,0,1-40.91-7.43ZM297-315.15a733.34,733.34,0,0,1,178.54,22l7.3-15.11c9.38-19.42,18.14-39.37,25-59.57l.95.26c-4.16,20.92-6.54,42.57-8.13,64.09l-1.23,16.72A733.25,733.25,0,0,1,807.8-107.67l14.71-10c17.79-12.1,35.29-25,51.29-39l.71.71c-14,16-26.85,33.51-39,51.3l-10,14.76A736.28,736.28,0,0,1,993.94,189.07q1.78,5.37,3.49,10.77c.39,1.23.77,2.45,1.15,3.68q2.32,7.5,4.5,15.08l18.32-1.34c21.5-1.59,43.13-4,64.05-8.13l.26,1c-20.19,6.86-40.12,15.61-59.54,25l-16.58,8q2.92,11.79,5.48,23.7l-.1,0a737,737,0,0,1,15.23,116.33l.14-.12q1,18.82,1,37.9a735.43,735.43,0,0,1-21.75,177.87l16.61,8c19.41,9.37,39.33,18.12,59.51,25l-.26,1c-20.91-4.15-42.53-6.52-64-8.11L1003,623.23q-2.1,7.35-4.36,14.64c-.45,1.47-.91,2.93-1.38,4.4q-1.59,5-3.25,10.06a736.27,736.27,0,0,1-168.57,279.3l10.08,14.83c12.08,17.77,24.91,35.24,38.9,51.23l-.72.72c-16-14-33.47-26.82-51.23-38.9l-14.78-10a733.23,733.23,0,0,1-308.34,179l1.24,16.84c1.58,21.48,4,43.08,8.11,64l-1,.26c-6.85-20.16-15.59-40.06-25-59.46l-7.34-15.21a736.36,736.36,0,0,1-357,0l-7.35,15.21c-9.37,19.4-18.11,39.3-25,59.46l-1-.26c4.15-20.89,6.52-42.49,8.11-64l1.23-16.84A733.08,733.08,0,0,1-213.78,949.45l-14.79,10.06c-17.77,12.08-35.24,24.9-51.23,38.9l-.72-.73c14-16,26.82-33.46,38.9-51.22l10.08-14.83A736.38,736.38,0,0,1-400.08,652.39q-1.69-5.11-3.33-10.28c-.43-1.37-.86-2.73-1.28-4.1q-2.28-7.37-4.41-14.78l-18.36,1.35c-21.49,1.58-43.11,4-64,8.12l-.26-1c20.18-6.86,40.09-15.6,59.5-25l16.61-8q-4.77-19.17-8.53-38.71l.13.09A741.14,741.14,0,0,1-437.2,420.86q0-9.47.24-18.86l-.18.44a734.94,734.94,0,0,1,21.49-159.35l-16.59-8c-19.41-9.38-39.33-18.13-59.52-25l.26-1c20.91,4.15,42.54,6.54,64,8.12l18.33,1.35q2.2-7.71,4.57-15.34l1-3.06q1.82-5.74,3.71-11.44A736.17,736.17,0,0,1-231.58-89.86l-10-14.77c-12.09-17.78-24.94-35.28-38.95-51.28l.71-.72c16,14,33.5,26.86,51.29,39l14.72,10A733,733,0,0,1,94.54-286.78l-1.23-16.73c-1.59-21.52-4-43.17-8.13-64.09l.95-.26c6.86,20.2,15.62,40.15,25,59.58l7.3,15.1a733.89,733.89,0,0,1,178.54-22ZM-338,254.59l.42,1.48a241.57,241.57,0,0,0-19.92-18.46q6-21.45,13.35-42.31a236.79,236.79,0,0,0,9.76,63.09q-1.78-1.92-3.61-3.8Zm-19.46,349.67a239,239,0,0,0,19.88-18.42l-.51,1.81c1.18-1.22,2.36-2.45,3.51-3.69a237.21,237.21,0,0,0-9.57,62.47q-7.32-20.79-13.31-42.17Zm50.17-310.71c-.63-1-1.27-2-1.91-3-2.39-11.38-6.87-28-4.72-28.15a218.82,218.82,0,0,1-12-71.7,219,219,0,0,1,8.34-60q5.33-11.26,11.05-22.3a218.7,218.7,0,0,1,17.52,86A219,219,0,0,1-299.65,262l-7.65,31.52ZM-308.15,510A218.09,218.09,0,0,0-289.24,421a218.17,218.17,0,0,0-18.91-89.09A218.17,218.17,0,0,0-327.06,421,218.09,218.09,0,0,0-308.15,510Zm139.66-319.55-.59.17.62.17a239.86,239.86,0,0,0-46.16,17.77,240.52,240.52,0,0,0-64.62,48.89,237.62,237.62,0,0,0,8.48-63.06,236.88,236.88,0,0,0-11.87-74.26,239.86,239.86,0,0,0,114.14,70.32ZM-307.17,548.62h0l-.49,11.67L-312.39,575a218.8,218.8,0,0,0-13.55,76,219.17,219.17,0,0,0,8.35,60q6.1,12.93,12.76,25.55A218.78,218.78,0,0,0-289,654.71,218.86,218.86,0,0,0-304,575l-3.35-14.86.15-11.5Zm24.82,32.68a241.29,241.29,0,0,0,43.84,38.06q9.16,6.09,18.92,11.35l-.47-.08a238.56,238.56,0,0,0,50.82,20.81,239.93,239.93,0,0,0-110,66.49,237.55,237.55,0,0,0,8.53-63.22,237,237,0,0,0-11.59-73.41Zm242.67,70.2A238.43,238.43,0,0,0,12.57,630l-2.65.46a240.63,240.63,0,0,0,56.3-42.28,238.52,238.52,0,0,0,0,125.74A239.73,239.73,0,0,0-39.68,651.5ZM97,550.89l0-.08.64,8.28L89.61,575a219.79,219.79,0,0,0,6.83,168.41A218.49,218.49,0,0,0,116.81,651a218.79,218.79,0,0,0-13.54-76l-5.59-15.53L97,550.89Zm.18-259.36,0-.06C95.08,283.87,86.63,262,88,262.09A219.82,219.82,0,0,1,96.44,98.31a218.58,218.58,0,0,1,20.37,92.41,219.49,219.49,0,0,1-8.31,60c-2.23,7.83-9.43,31.81-11.16,40.59l-.16.23ZM62.9,378.38c-.11.56-.2,1.12-.3,1.68l0,.08A238.89,238.89,0,0,0,59.08,421q0,7.68.48,15.23l.09,1.26,0,.4A238.66,238.66,0,0,0,68,486.06,240.36,240.36,0,0,0-42.07,421a240.35,240.35,0,0,0,110.2-65.21Q65,366.86,62.9,378.38Zm34-48a219.56,219.56,0,0,0,0,181.18A218.24,218.24,0,0,0,116.53,421a218.21,218.21,0,0,0-19.59-90.59ZM-276.38,483.82A237.05,237.05,0,0,0-267.93,421a237.11,237.11,0,0,0-8.45-62.86A240.46,240.46,0,0,0-168.46,421a240.33,240.33,0,0,0-107.92,62.85ZM1,274.72a221.64,221.64,0,0,0,75.87,20.51A221.94,221.94,0,0,0-85,201.55a222.05,222.05,0,0,0,86.33,73l-.31.2ZM-85.84,431.61A221.89,221.89,0,0,0,76.85,525.36,221.92,221.92,0,0,0-85.84,431.61Zm162.68-115A222,222,0,0,0-85.84,410.3,221.94,221.94,0,0,0,76.84,316.56Zm-364.25-21.3a221.67,221.67,0,0,0,139.1-65.09,269.39,269.39,0,0,0,22.91-28.62c-3.44.31-6.87.69-10.27,1.16A221,221,0,0,0-257.94,262l-3.75,2.77a222.06,222.06,0,0,0-25.72,30.46Zm212.59,73.48a236.9,236.9,0,0,0,8.45-62.84A237.28,237.28,0,0,0-74.83,243a240.2,240.2,0,0,0,108,62.88A240.35,240.35,0,0,0-74.82,368.74Zm-30.28,29.57A218.17,218.17,0,0,0-84.67,305.9a218.43,218.43,0,0,0-11.57-70.35c-2.84-7-6-13.74-9-20.36-3.33,7.33-6.63,15-9.52,22.78a219.71,219.71,0,0,0,9.65,160.34ZM-287.42,525.4a221.94,221.94,0,0,0,163.11-93.82A221.91,221.91,0,0,0-287.42,525.4Zm152.07-156.64a240.38,240.38,0,0,0-107.94-62.87A240.19,240.19,0,0,0-135.36,243a238.21,238.21,0,0,0,0,125.73Zm60.53,230.12A236.92,236.92,0,0,0-66.37,536a236.85,236.85,0,0,0-8.46-62.88A240.29,240.29,0,0,0,33.12,536,240.35,240.35,0,0,0-74.82,598.88Zm-49.5-188.55a221.89,221.89,0,0,0-163.08-93.8,222,222,0,0,0,163.08,93.8ZM-85.11,550q.44-6.93.44-14a218.16,218.16,0,0,0-20.42-92.41A218.15,218.15,0,0,0-125.5,536a221.31,221.31,0,0,0,2.88,35.62l.72-.26a217.49,217.49,0,0,0,16.68,55.14,218.25,218.25,0,0,0,19.14-77.48c.32.33.64.65,1,1Zm-50.24,48.89A240.29,240.29,0,0,0-243.29,536a240.19,240.19,0,0,0,107.93-62.86,238.21,238.21,0,0,0,0,125.73Zm9.78,41-4-.16a221.11,221.11,0,0,1-133-64.7l-3-1.91a222.37,222.37,0,0,1-21.82-26.49,221.31,221.31,0,0,1,91,28.23l-.68,0a222.09,222.09,0,0,1,71.47,65.07Zm47.24-.3c-2.17.09-4.34.18-6.52.25A222.32,222.32,0,0,1-13.61,575H-14a221.58,221.58,0,0,1,90.8-28.28A222,222,0,0,1-73,638.94q-2.67.38-5.34.69ZM951.51,237.72a240.94,240.94,0,0,0-20,18.73,236.92,236.92,0,0,0,9-54.4q6,17.63,11,35.67ZM905.45,289l-1.65,2.51c-2-6.07-7-18.63-6.49-19A219.91,219.91,0,0,1,900.5,108.4q8.87,17.07,16.79,34.7c3.4,15.34,5.2,26.22,5.2,47.62,0,20.75-8.67,73.67-17,98.31Zm-30.83,66.75a239.65,239.65,0,0,0-.1,130.26A241,241,0,0,0,764.18,421a241.07,241.07,0,0,0,110.44-65.19ZM931.7,585.91a242.19,242.19,0,0,0,19.71,18.46q-5,17.85-10.93,35.31a236.63,236.63,0,0,0-8.78-53.77Zm24.82-.93a221.9,221.9,0,0,1-34.18-38.31c1,.08,2.07.18,3.1.28a220.92,220.92,0,0,1,37.94,7.32q-3.09,15.48-6.86,30.71Zm10.21-48.9-.17-.05.19,0,0,.1ZM872.1,253.43a241.57,241.57,0,0,0-59.2-43.56,238.85,238.85,0,0,0-48.53-19.09l1.34-.37-.19,0a239.91,239.91,0,0,0,109.68-65.9,238.62,238.62,0,0,0-3.1,129Zm-234.77-62.9-.47.13.62.17a234.39,234.39,0,0,0-109.47,65,238.56,238.56,0,0,0,0-130.38,239.83,239.83,0,0,0,109.36,65.07ZM461.72,431.89c0,.53,0,1.05.07,1.58l.09,1.58a237.77,237.77,0,0,0,8.59,51.08,239.78,239.78,0,0,0-110-65.16,239.89,239.89,0,0,0,110-65.26A237.4,237.4,0,0,0,461.47,421c0,1.27,0,2.53,0,3.79v.32c0,1.1,0,2.21.07,3.31l0,.85c0,.89.07,1.78.11,2.66Zm66.47,154.62a241.61,241.61,0,0,0,39.08,32.85q9.19,6.09,19,11.35l-.48-.08a238.88,238.88,0,0,0,50.81,20.77A239.74,239.74,0,0,0,528,716.26a238.58,238.58,0,0,0,.22-129.75Zm238.09,65.07A239.14,239.14,0,0,0,819,630l-3.12.54a241.46,241.46,0,0,0,58.86-44.65l-.51,1.81.2-.2a238.7,238.7,0,0,0-2.16,126.73,239.85,239.85,0,0,0-105.94-62.6ZM903.52,330.37a219.12,219.12,0,0,0-.31,180.48,219.56,219.56,0,0,0,9.86-26.28l.89-.77a219.09,219.09,0,0,0-10.44-153.43ZM529.31,483.82a237.49,237.49,0,0,0,0-125.72A241.19,241.19,0,0,0,637.48,421a241.06,241.06,0,0,0-108.17,62.85ZM783.63,261.71a222.46,222.46,0,0,0,99.76,33.52c-1.47-2.09-3-4.14-4.51-6.18l-.7-.4a220.65,220.65,0,0,0-157.59-87.14,222.12,222.12,0,0,0,63.14,60.2ZM720.3,431.61a222.55,222.55,0,0,0,163.09,93.75A222.58,222.58,0,0,0,720.3,431.61Zm163.07-115A222.59,222.59,0,0,0,720.31,410.3a222.56,222.56,0,0,0,163.06-93.74Zm-365.12-21.3a222.54,222.54,0,0,0,150-76.48c4.08-5.75,8.06-11.54,12-17.2a222.59,222.59,0,0,0-162,93.68Zm213.1,73.48a237.39,237.39,0,0,0,0-125.73,240.9,240.9,0,0,0,108.21,62.88,241.05,241.05,0,0,0-108.2,62.85ZM701,398.31a218.9,218.9,0,0,0,8-165.22c-2.91-6.09-5.94-12.06-8.59-17.89-1.42,3.13-2.88,6.32-4.31,9.56A219,219,0,0,0,701,398.31ZM518.25,525.4a222.56,222.56,0,0,0,163.49-93.82A222.55,222.55,0,0,0,518.25,525.4ZM670.67,368.76a241,241,0,0,0-108.19-62.87A240.89,240.89,0,0,0,670.67,243a237.53,237.53,0,0,0,0,125.73Zm60.68,230.12a237.39,237.39,0,0,0,0-125.73A241,241,0,0,0,839.55,536a240.63,240.63,0,0,0-75.34,35.2l-.1,0a240.26,240.26,0,0,0-24.21,19.49q-4.38,4-8.55,8.19ZM681.74,410.33a222.57,222.57,0,0,0-163.47-93.8,222.56,222.56,0,0,0,163.47,93.8ZM721,550.07c.29-4.64.45-9.32.45-14A217.75,217.75,0,0,0,701,443.62,217.74,217.74,0,0,0,680.55,536a220.37,220.37,0,0,0,2.32,32l.36-.1a217.7,217.7,0,0,0,17.21,58.61,218.14,218.14,0,0,0,19-75.34c.52-.36,1-.73,1.57-1.11ZM670.67,598.9A240.91,240.91,0,0,0,562.48,536a240.89,240.89,0,0,0,108.19-62.86,237.53,237.53,0,0,0,0,125.73Zm9.42,41c-1.4,0-2.8-.1-4.2-.16A221.18,221.18,0,0,1,543,575l-3.32-2.33a221.75,221.75,0,0,1-21.38-26A222.22,222.22,0,0,1,609.66,575h-.82a222.23,222.23,0,0,1,71.25,64.93Zm47-.25c-2.09.09-4.17.18-6.27.24a221.18,221.18,0,0,1,162.56-93.2l0,.06c-.82,1.16-1.65,2.3-2.48,3.45a61.63,61.63,0,0,1-4.34,5,221.39,221.39,0,0,1-149.43,84.44Zm-257-385.07c.13.44.25.89.38,1.34A239.72,239.72,0,0,0,360.7,190.78l1.33-.37-.19,0a239.84,239.84,0,0,0,108.71-64.89,239,239,0,0,0-.38,129.16l0,0Zm-236.21-64-.18,0,.43.12a239.76,239.76,0,0,0-107.52,62.8,237.46,237.46,0,0,0,8.43-62.86,237.81,237.81,0,0,0-8.43-62.86,239.75,239.75,0,0,0,107.27,62.75ZM157,614.08c2.46,1.8,4.94,3.57,7.47,5.28q9.15,6.09,18.89,11.35l-.48-.08a237.92,237.92,0,0,0,50.32,20.7,239.7,239.7,0,0,0-106.52,62.53A237.51,237.51,0,0,0,135.08,651a237.94,237.94,0,0,0-8.43-62.87,239.88,239.88,0,0,0,30.32,26Zm205.63,37.5A237.61,237.61,0,0,0,415.05,630l-3.11.54a240.36,240.36,0,0,0,58.57-44.61,239,239,0,0,0,0,130.37A239.81,239.81,0,0,0,362.6,651.58Zm135.62-99,.84-1.28c2.26,9.89,7.52,26.9,10,34.91a219.86,219.86,0,0,1-9.8,155.38,220.38,220.38,0,0,1-11.69-148.9c2-7.13,10.19-31.71,10.65-40.11Zm1.34-261h0c-.59-3.38,1-11.12,6.07-25.91a219.68,219.68,0,0,0-6.36-165.57A220.18,220.18,0,0,0,492,263.07c-2.13-.28,4.43,17.62,7.61,28.55Zm-.3,38.75a220,220,0,0,0,0,181.18,219.66,219.66,0,0,0,0-181.18ZM126.65,483.82A237.46,237.46,0,0,0,135.08,421a237.92,237.92,0,0,0-8.43-62.86A239.78,239.78,0,0,0,234.35,421a239.66,239.66,0,0,0-107.7,62.85ZM380.38,262a220.82,220.82,0,0,0,98.83,33.21A221.42,221.42,0,0,0,316.9,201.49,222.16,222.16,0,0,0,380.54,262ZM316.82,431.61a221.4,221.4,0,0,0,162.39,93.75,221.45,221.45,0,0,0-162.39-93.75Zm162.37-115A221.48,221.48,0,0,0,316.82,410.3a221.41,221.41,0,0,0,162.37-93.74Zm-363.56-21.3A220.71,220.71,0,0,0,214.83,262h-.16a222.31,222.31,0,0,0,63.68-60.57,221.41,221.41,0,0,0-162.72,93.8Zm212.19,73.48A238.33,238.33,0,0,0,332.19,262h0q-1.8-9.63-4.36-19a239.72,239.72,0,0,0,107.71,62.84,239.79,239.79,0,0,0-107.74,62.85ZM297.6,398.31a219.67,219.67,0,0,0,0-184.83,219.87,219.87,0,0,0,0,184.83Zm-182,127.09a221.41,221.41,0,0,0,162.79-93.82A221.4,221.4,0,0,0,115.63,525.4ZM267.4,368.76a239.79,239.79,0,0,0-107.73-62.87,239.62,239.62,0,0,0,107.69-62.82q-2.57,9.33-4.35,19h0a239,239,0,0,0,4.38,106.73Zm60.46,230a238.23,238.23,0,0,0-.05-125.59A239.73,239.73,0,0,0,435.56,536a239,239,0,0,0-65.16,28.63l-.09-.06a240.77,240.77,0,0,0-42.45,34.14ZM278.42,410.33a221.42,221.42,0,0,0-162.78-93.8,221.45,221.45,0,0,0,162.78,93.8Zm36.32,163.48A219.9,219.9,0,0,0,318,536a218.59,218.59,0,0,0-20.38-92.41A220.34,220.34,0,0,0,280.69,575h0a218.11,218.11,0,0,0,16.89,53.35,217.45,217.45,0,0,0,17.11-54.53Zm-75.68.58A239.16,239.16,0,0,0,159.67,536,239.68,239.68,0,0,0,267.4,473.17a238.64,238.64,0,0,0,0,125.59,241.64,241.64,0,0,0-28.18-24.39l-.12,0Zm39,65.56c-2-.05-4-.14-6-.23A221.05,221.05,0,0,1,139.31,575l-.32-.21a222,222,0,0,1-23.35-28.1A221.38,221.38,0,0,1,278.05,640Zm45.24-.28c-2,.09-4.05.17-6.09.23a221.45,221.45,0,0,1,162-93.2,222.31,222.31,0,0,1-22.49,27.23h-.11a221.1,221.1,0,0,1-133.3,65.74ZM499.26-130a218.71,218.71,0,0,0-19.52,90.6,218.46,218.46,0,0,0,19.52,90.58,218.48,218.48,0,0,0,19.55-90.58A218.57,218.57,0,0,0,499.26-130ZM638-39.41A239.83,239.83,0,0,0,528,25.85a237,237,0,0,0,9.1-65.26,237.12,237.12,0,0,0-9.1-65.27A239.8,239.8,0,0,0,638-39.41ZM470.55,815.88a239,239,0,0,0,0,130.5,239.77,239.77,0,0,0-110-65.24,239.72,239.72,0,0,0,110-65.26Zm28.71-25.34a220,220,0,0,0,0,181.18,219.66,219.66,0,0,0,0-181.18ZM638,881.14A239.73,239.73,0,0,0,528,946.4a238.59,238.59,0,0,0,0-130.53A239.8,239.8,0,0,0,638,881.14ZM126.65,23.44a237.85,237.85,0,0,0,8.43-62.85,237.94,237.94,0,0,0-8.43-62.87A239.67,239.67,0,0,0,234.36-39.41,239.64,239.64,0,0,0,126.65,23.44ZM96.44,53a218.49,218.49,0,0,0,20.37-92.39,218.55,218.55,0,0,0-20.37-92.41A218.4,218.4,0,0,0,76.06-39.41,218.34,218.34,0,0,0,96.44,53ZM66.23,23.46A239.69,239.69,0,0,0-41.48-39.41a239.78,239.78,0,0,0,107.7-62.87,237.53,237.53,0,0,0-8.43,62.87,237.18,237.18,0,0,0,8.44,62.87Zm0,230.13A239.87,239.87,0,0,0-41.48,190.72a239.73,239.73,0,0,0,107.7-62.86,238.48,238.48,0,0,0,0,125.73ZM126.65,944a237.46,237.46,0,0,0,8.43-62.86,237.92,237.92,0,0,0-8.43-62.86,239.78,239.78,0,0,0,107.7,62.87A239.66,239.66,0,0,0,126.65,944ZM96.44,973.53a218.5,218.5,0,0,0,20.37-92.4,218.5,218.5,0,0,0-20.37-92.4,219.65,219.65,0,0,0,0,184.8ZM66.23,944A239.69,239.69,0,0,0-41.48,881.14a239.84,239.84,0,0,0,107.7-62.87,238.52,238.52,0,0,0,0,125.74ZM519.41,64.86A221.44,221.44,0,0,0,680.3-28.63,221.42,221.42,0,0,0,519.41,64.86ZM316.82-28.76A221.42,221.42,0,0,0,479.21,65,221.44,221.44,0,0,0,316.82-28.76ZM680.3-50.21a221.44,221.44,0,0,0-160.87-93.48A221.44,221.44,0,0,0,680.3-50.21ZM479.19-143.82A221.48,221.48,0,0,0,316.82-50.08a221.41,221.41,0,0,0,162.37-93.74ZM680.31,179.94A221.4,221.4,0,0,0,519.43,86.45a221.49,221.49,0,0,0,160.88,93.49ZM479.19,86.32a221.46,221.46,0,0,0-162.37,93.74A221.41,221.41,0,0,0,479.19,86.32Zm40.22,669A221.41,221.41,0,0,0,680.3,661.78a221.41,221.41,0,0,0-160.89,93.49ZM316.82,661.65A221.46,221.46,0,0,0,479.21,755.4a221.45,221.45,0,0,0-162.39-93.75ZM519.41,985.41a221.45,221.45,0,0,0,160.9-93.5,221.45,221.45,0,0,0-160.9,93.5ZM316.82,891.79a221.46,221.46,0,0,0,162.39,93.75,221.42,221.42,0,0,0-162.39-93.75ZM680.3,870.34a221.44,221.44,0,0,0-160.87-93.48A221.42,221.42,0,0,0,680.3,870.34ZM479.19,776.73a221.48,221.48,0,0,0-162.37,93.74,221.41,221.41,0,0,0,162.37-93.74Zm-604.56-596.8A221.4,221.4,0,0,0-286.24,86.45a221.42,221.42,0,0,0,160.87,93.48ZM-286.25,755.27a221.4,221.4,0,0,0,160.88-93.49,221.44,221.44,0,0,0-160.88,93.49Zm958-744.91a239,239,0,0,0,0,130.54A239.9,239.9,0,0,0,561.68,75.65,239.7,239.7,0,0,0,671.74,10.36Zm28.7-25.3a220,220,0,0,0,0,181.18,219.66,219.66,0,0,0,0-181.18ZM839.23,75.65a239.81,239.81,0,0,0-110.08,65.27,238.63,238.63,0,0,0,0-130.54A239.64,239.64,0,0,0,839.23,75.65Zm43.64,10.67A221.46,221.46,0,0,0,720.5,180.06,221.41,221.41,0,0,0,882.87,86.32ZM720.5,661.65A221.46,221.46,0,0,0,882.89,755.4,221.43,221.43,0,0,0,720.5,661.65Zm-48.76,39.12a239,239,0,0,0,0,130.55,239.78,239.78,0,0,0-110.05-65.25,239.77,239.77,0,0,0,110.06-65.3Zm28.7-25.3a220,220,0,0,0,0,181.19,219.68,219.68,0,0,0,0-181.19Zm138.79,90.59a239.83,239.83,0,0,0-110.09,65.28,238.5,238.5,0,0,0,0-130.54,239.71,239.71,0,0,0,110.08,65.26ZM327.82-91.64a237.31,237.31,0,0,0,8.44-62.84,237.76,237.76,0,0,0-8.45-62.9,239.66,239.66,0,0,0,107.75,62.89A239.79,239.79,0,0,0,327.82-91.64ZM297.6-62.07A218.44,218.44,0,0,0,318-154.48a218.63,218.63,0,0,0-20.38-92.42,218.62,218.62,0,0,0-20.37,92.42A218.57,218.57,0,0,0,297.6-62.07ZM115.63,65A221.45,221.45,0,0,0,278.42-28.79,221.42,221.42,0,0,0,115.63,65ZM-85.17-28.76A221.44,221.44,0,0,0,77.23,65,221.49,221.49,0,0,0-85.17-28.76ZM267.4-91.62a239.74,239.74,0,0,0-107.73-62.87A239.59,239.59,0,0,0,267.4-217.35,237.53,237.53,0,0,0,259-154.48a237.46,237.46,0,0,0,8.43,62.86ZM327.82,138.5a238.21,238.21,0,0,0,0-125.73A239.75,239.75,0,0,0,435.55,75.65,239.81,239.81,0,0,0,327.82,138.5ZM-133.93,10.38a238.68,238.68,0,0,0,0,130.52A239.87,239.87,0,0,0-244,75.66a239.92,239.92,0,0,0,110-65.28ZM278.42-50a221.42,221.42,0,0,0-162.78-93.8A221.44,221.44,0,0,0,278.42-50ZM297.6,168.07a219.67,219.67,0,0,0,0-184.83,219.87,219.87,0,0,0,0,184.83Zm-402.83-183a219.84,219.84,0,0,0,0,181.19,218.49,218.49,0,0,0,19.53-90.6,218.49,218.49,0,0,0-19.54-90.59ZM77.21-143.82A221.48,221.48,0,0,0-85.17-50.08,221.45,221.45,0,0,0,77.21-143.82ZM267.4,138.52A239.7,239.7,0,0,0,159.67,75.65,239.68,239.68,0,0,0,267.4,12.79a238.62,238.62,0,0,0,0,125.73ZM33.56,75.65A239.85,239.85,0,0,0-76.52,140.91a237.42,237.42,0,0,0,9.1-65.26A237.4,237.4,0,0,0-76.51,10.4,239.8,239.8,0,0,0,33.56,75.65ZM278.42,180.09a221.42,221.42,0,0,0-162.78-93.8,221.44,221.44,0,0,0,162.78,93.8ZM77.21,86.32A221.46,221.46,0,0,0-85.17,180.06,221.45,221.45,0,0,0,77.21,86.32Zm38.42,669.11a221.42,221.42,0,0,0,162.79-93.81,221.42,221.42,0,0,0-162.79,93.81Zm-200.8-93.78A221.4,221.4,0,0,0,77.23,755.4a221.44,221.44,0,0,0-162.4-93.75Zm413,167.27a238.24,238.24,0,0,0,0-125.74,239.7,239.7,0,0,0,107.75,62.88,239.72,239.72,0,0,0-107.74,62.86ZM-133.93,700.79a238.68,238.68,0,0,0,0,130.52,239.85,239.85,0,0,0-110-65.24,239.82,239.82,0,0,0,110.06-65.28ZM297.6,858.48a219.65,219.65,0,0,0,0-184.82,219.85,219.85,0,0,0,0,184.82Zm-182,127.09a221.41,221.41,0,0,0,162.79-93.82,221.43,221.43,0,0,0-162.79,93.82Zm-200.8-93.79a221.44,221.44,0,0,0,162.4,93.76,221.43,221.43,0,0,0-162.4-93.76Zm-20.06-216.31a219.86,219.86,0,0,0,0,181.2,218.53,218.53,0,0,0,19.53-90.6,218.53,218.53,0,0,0-19.54-90.6ZM267.4,828.94a239.72,239.72,0,0,0-107.73-62.88A239.59,239.59,0,0,0,267.4,703.2a238.65,238.65,0,0,0,0,125.74Zm60.42,230.12a238.24,238.24,0,0,0,0-125.74A239.73,239.73,0,0,0,435.56,996.2a239.72,239.72,0,0,0-107.74,62.86Zm-294.26-293A239.9,239.9,0,0,0-76.52,831.32a237,237,0,0,0,9.1-65.25,237.42,237.42,0,0,0-9.09-65.26A239.71,239.71,0,0,0,33.56,766.06ZM278.42,870.5a221.42,221.42,0,0,0-162.78-93.8,221.42,221.42,0,0,0,162.78,93.8Zm19.18,218.12a219.65,219.65,0,0,0,0-184.82,219.85,219.85,0,0,0,0,184.82ZM77.21,776.73A221.48,221.48,0,0,0-85.17,870.47,221.45,221.45,0,0,0,77.21,776.73ZM267.4,1059.07A239.7,239.7,0,0,0,159.67,996.2,239.68,239.68,0,0,0,267.4,933.34a238.62,238.62,0,0,0,0,125.73Zm3.22-1317.19c2.47-.1,4.94-.22,7.43-.28a221.42,221.42,0,0,1-162.42,93.28,221.44,221.44,0,0,1,155-93ZM-281.58,64.37q7.83-12.66,16.17-25a221.11,221.11,0,0,1,140-68,221.46,221.46,0,0,1-156.21,93Zm16.12,737.89q-8.34-12.27-16.12-24.91a221.42,221.42,0,0,1,156.21,93,221.16,221.16,0,0,1-140.09-68.08Zm543.51,297.86c-2.44-.06-4.87-.18-7.31-.27a221.52,221.52,0,0,1-155.1-93,221.38,221.38,0,0,1,162.41,93.28Zm46.51-.32c-2.45.09-4.9.2-7.36.28a221.43,221.43,0,0,1,162-93.21,221.46,221.46,0,0,1-154.63,92.93ZM875.43,777.51q-10.47,16.93-21.88,33.2a221,221,0,0,1-133,59.76,221.46,221.46,0,0,1,154.92-93Zm41.86-78.88q-8.68,19.3-18.51,38a219.85,219.85,0,0,1,4.79-174.78,220,220,0,0,1,13.72,136.82ZM853.51,31q11.43,16.27,21.91,33.25a221.45,221.45,0,0,1-154.92-93A221.06,221.06,0,0,1,853.51,31ZM317.21-258.35c2.5.07,5,.18,7.49.28a221.49,221.49,0,0,1,154.51,92.92,221.45,221.45,0,0,1-162-93.2ZM63.53,1059.22q1.23-5.46,2.69-10.82c-2.87,2.91-5.81,5.73-8.83,8.49,2,.77,4.08,1.57,6.14,2.33Zm50.36,16.18a218.58,218.58,0,0,0-17.45-56.54,217.74,217.74,0,0,0-15.54,46.43q16.3,5.48,33,10.11Zm69.44,15.48a240.35,240.35,0,0,1-56.69-42.48,237.08,237.08,0,0,1,6.45,32q24.76,6.13,50.24,10.43Zm280.2-11.09a235.86,235.86,0,0,1,7-33.78,240.28,240.28,0,0,1-58.61,44.65q26.15-4.46,51.59-10.87ZM513.9,1065a218.24,218.24,0,0,0-14.64-44.33,217.77,217.77,0,0,0-16.49,54q15.74-4.47,31.13-9.66Zm24.49-8.82Q533,1051.26,528,1046q1.83,6.39,3.29,12.9c2.39-.87,4.75-1.8,7.13-2.71Zm60.33-26.38A220.7,220.7,0,0,0,519.44,1007a222.06,222.06,0,0,0,37.93,41.66q21-8.76,41.35-18.85Zm63.94-36.14a237.56,237.56,0,0,1,9.08-62.76,239.85,239.85,0,0,1-110.06,65.3,238.79,238.79,0,0,1,56.64,23.5q22.7-12.21,44.34-26Zm53.57-38a218.45,218.45,0,0,0-15.79-50,218,218,0,0,0-19,75.57q17.8-12.24,34.81-25.54Zm20.7-17q-4-3.78-7.78-7.73,1.67,5.8,3,11.75c1.6-1.33,3.18-2.68,4.76-4Zm38.23-35.08a220.61,220.61,0,0,0-54.66-11.8,221,221,0,0,0,30.23,34.83q12.49-11.22,24.43-23Zm39.35-42.46a238.35,238.35,0,0,1-50.32,20,240.75,240.75,0,0,1,24.92,8.25q13.11-13.75,25.4-28.26ZM974.23,476.46a222.31,222.31,0,0,0-48.76,48.45,221.34,221.34,0,0,0,44.43-9.28q2.72-19.42,4.33-39.17ZM789.11-47.67a238.43,238.43,0,0,1-24.92,8.26,238.86,238.86,0,0,1,50.32,20C806.3-29,797.85-38.5,789.11-47.67ZM750.72-84.9a221.82,221.82,0,0,0-30.21,34.82,220.83,220.83,0,0,0,54.63-11.8q-11.92-11.82-24.42-23ZM732.17-101q-1.36,5.94-3,11.76,3.81-4,7.78-7.74c-1.58-1.34-3.16-2.69-4.75-4Zm-50.75-38.49a218.12,218.12,0,0,0,19,75.57,218.53,218.53,0,0,0,15.79-50q-17-13.34-34.81-25.55ZM618.3-178a238.42,238.42,0,0,1-56.61,23.51,239.75,239.75,0,0,1,110,65.25,237.73,237.73,0,0,1-9.07-62.72Q641-165.78,618.3-178Zm-60.95-28.95a222.12,222.12,0,0,0-37.94,41.66,220.49,220.49,0,0,0,79.3-22.82q-20.31-10.08-41.36-18.84Zm-26.09-10.24q-1.47,6.51-3.29,12.89,5.06-5.25,10.41-10.18c-2.37-.91-4.74-1.84-7.12-2.71Zm-48.48-15.77a217.39,217.39,0,0,0,16.48,54,218.15,218.15,0,0,0,14.64-44.32q-15.4-5.19-31.12-9.66Zm-70.8-16a240.43,240.43,0,0,1,58.57,44.63,237.38,237.38,0,0,1-7-33.77q-25.41-6.41-51.55-10.86ZM133.09-238.72a238.64,238.64,0,0,1-6.44,32,240,240,0,0,1,56.64-42.46q-25.42,4.29-50.2,10.43ZM80.9-223.57a217.57,217.57,0,0,0,15.54,46.41,217.91,217.91,0,0,0,17.44-56.52q-16.66,4.65-33,10.11Zm-23.51,8.4c3,2.76,6,5.58,8.84,8.49Q64.76-212,63.54-217.5c-2.06.75-4.1,1.56-6.15,2.33ZM-4.12-188.42a220.79,220.79,0,0,0,81.35,23.27,222,222,0,0,0-38.88-42.51q-21.61,8.91-42.47,19.24Zm-63.31,35.67a237.34,237.34,0,0,1-9.08,63.52A239.81,239.81,0,0,1,33.56-154.49a238.84,238.84,0,0,1-57.25-23.85q-22.38,12-43.74,25.59Zm-53.73,38a217,217,0,0,0,15.94,50.89,218.07,218.07,0,0,0,19.08-76.51q-17.92,12.27-35,25.62ZM-142.3-97.52q4.28,4,8.36,8.28-1.78-6.24-3.22-12.63c-1.73,1.44-3.43,2.9-5.14,4.35Zm-38.2,35a220.82,220.82,0,0,0,55.13,12.35,221.72,221.72,0,0,0-30.75-35.27q-12.47,11.16-24.38,22.92Zm-42.33,45.83a238.57,238.57,0,0,1,55.19-22.68,239,239,0,0,1-26.81-9Q-209.14-33-222.83-16.73Zm28.38,906.87a239,239,0,0,1,26.81-9,238.57,238.57,0,0,1-55.19-22.68q13.72,16.27,28.38,31.68Zm38.32,37.06a221.55,221.55,0,0,0,30.77-35.29,221.23,221.23,0,0,0-55.15,12.36Q-168.6,916-156.13,927.2Zm19,16.39c1-4.27,2-8.49,3.24-12.66q-4.09,4.25-8.39,8.3c1.72,1.46,3.43,2.92,5.15,4.36Zm51,38.52a218.31,218.31,0,0,0-19.1-76.5,218,218,0,0,0-15.94,50.89q17.08,13.35,35,25.61Zm62.43,37.95A238.77,238.77,0,0,1,33.56,996.2,239.83,239.83,0,0,1-76.52,931a237.29,237.29,0,0,1,9.09,63.52q21.33,13.59,43.73,25.59Zm100.9-13.19a220.79,220.79,0,0,0-81.33,23.26q20.84,10.32,42.46,19.24a221.93,221.93,0,0,0,38.87-42.5Z" transform="translate(836.89 713)"/><path class="cls-3" d="M-669.36,978.75c53.87-37.92,23.12-149.88,72.21-240.52,25.36-46.84,71.38-72,172.22-79.46A766.2,766.2,0,0,0-270,927.09c-56.85,83.62-101.68,110.87-154.92,109.42-51.57-1.41-97.76-22.8-138.53-40.35s-76-31.21-105.87-17.38c-.23.11-.22.11,0,0ZM-818.84,420.84c65.61-5.91,95-118.24,182.79-172.2,45.38-27.87,97.83-26.68,188.88,17.3a765.93,765.93,0,0,0,0,309.83c-91.05,44-143.5,45.18-188.88,17.3-44-27-73.26-68.62-99.8-104.21s-50.21-65-83-68c-.25,0-.25,0,0,0Zm557.89,966.33c27.69-59.77-54.92-141.36-57.73-244.4-1.45-53.24,25.8-98.06,109.42-154.92A766,766,0,0,0,59.06,1142.76C51.63,1243.61,26.44,1289.62-20.4,1315c-45.36,24.56-96.06,29.13-140.15,34.32s-81.42,11-100.37,37.88c-.14.21-.14.21,0,0ZM854.9-545.45c-27.69,59.77,54.91,141.35,57.73,244.39,1.45,53.25-25.8,98.07-109.42,154.93A765.79,765.79,0,0,0,534.89-301c7.43-100.85,32.62-146.87,79.46-172.23,45.36-24.56,96.06-29.14,140.14-34.32s81.43-11,100.38-37.88c.14-.21.14-.21,0,0Zm-27.76,48.08c-22.51,8.54-47.66,11.86-70.48,14.85-45.3,5.94-91.7,10.93-132.77,33.82a111.29,111.29,0,0,0-16.81,11.38c-34.63,28.6-45.67,81.84-50.58,126.54A769.58,769.58,0,0,1,800.83-169.71c36.26-26.61,76.84-62.79,84.29-107.08A111.79,111.79,0,0,0,886.58-297c-.66-43.8-17.17-84.11-33.59-123.49-9.73-23.31-21.48-50-25.85-76.85Zm-17.21,30c-16.68,4.18-33.89,6.83-50.71,9.23-41.82,6-87.08,11.06-125.09,32.78-34.77,19.86-47.59,62.18-53.69,102.06A775.1,775.1,0,0,1,799.7-196.7c31.48-25.23,61.73-57.49,61.54-97.53C861-352.51,826-410.31,809.93-467.36Zm1.71,52.86C768.26-350.16,857.4-299.73,756.19-248c9.88,7.11,28.6,21.53,38.14,29.12,31.89-23.37,46.18-48.36,48.31-74.13,2.64-32.1-21.4-79.43-31-121.5ZM-233.19,1339.09c22.51-8.55,47.66-11.86,70.48-14.85,45.3-5.94,91.7-10.93,132.77-33.82A112.7,112.7,0,0,0-13.14,1279c34.64-28.6,45.67-81.84,50.59-126.55a769.51,769.51,0,0,1-244.33-141.06c-36.26,26.61-76.85,62.79-84.3,107.08a111.72,111.72,0,0,0-1.45,20.24c.66,43.8,17.16,84.11,33.59,123.49,9.73,23.3,21.48,50,25.85,76.85Zm17.21-30c16.68-4.18,33.88-6.83,50.7-9.23,41.83-6,87.09-11.07,125.1-32.78,34.77-19.86,47.59-62.18,53.69-102.06a775.1,775.1,0,0,1-219.26-126.59c-31.49,25.23-61.73,57.48-61.54,97.53C-267,1194.23-232,1252-216,1309.08Zm-1.71-52.86c43.38-64.34-45.76-114.77,55.45-166.51-9.88-7.11-28.6-21.54-38.14-29.12-31.89,23.37-46.19,48.36-48.31,74.13-2.64,32.1,21.4,79.43,31,121.5ZM297-694.95c5.91,65.6,118.24,95,172.2,182.79,27.88,45.38,26.69,97.83-17.3,188.88a765.93,765.93,0,0,0-309.83,0c-44-91.05-45.18-143.5-17.3-188.88,27-44,68.63-73.27,104.21-99.8s65-50.22,68-83c0-.26,0-.25,0,0Zm0,2231.62c-5.92-65.6-118.24-95-172.2-182.79-27.88-45.38-26.69-97.83,17.3-188.88a765.45,765.45,0,0,0,309.83,0c44,91,45.17,143.5,17.29,188.88-27,44-68.62,73.27-104.21,99.8s-65,50.22-68,83c0,.26,0,.25,0,0Zm0-55.52c15.22-18.65,35.34-34.1,53.61-48.1,36.27-27.79,73.95-55.31,98.08-95.67a112.31,112.31,0,0,0,8.86-18.26c15.69-42.08-1.37-93.71-19.46-134.88a769.53,769.53,0,0,1-282.13,0c-18.1,41.17-35.16,92.8-19.46,134.88a111.45,111.45,0,0,0,8.85,18.26c22.48,37.59,56.92,64.25,90.84,90.14,20.08,15.32,43.61,32.57,60.81,53.63Zm-.1-34.59c12.35-12,25.93-22.86,39.3-33.35,33.23-26.08,69.88-53.12,91.94-90.93,20.19-34.59,10.13-77.65-4.53-115.23a775.57,775.57,0,0,1-253.17,0c-14.66,37.59-24.72,80.64-4.54,115.23,29.38,50.33,88.59,82.89,131,124.28Zm-27.91-44.92c5.4-77.41-97-76.52-35.23-171.93-12.12-1.22-35.54-4.35-47.59-6.15-15.94,36.19-15.82,65-4.77,88.35,13.75,29.12,58.24,58.09,87.59,89.73ZM297-639.43c-15.22,18.65-35.35,34.1-53.61,48.1-36.27,27.79-74,55.31-98.08,95.67a111.49,111.49,0,0,0-8.86,18.26c-15.7,42.08,1.37,93.71,19.46,134.88a769.53,769.53,0,0,1,282.13,0c18.09-41.17,35.15-92.8,19.46-134.88a112.31,112.31,0,0,0-8.86-18.26c-22.47-37.59-56.92-64.25-90.83-90.14-20.08-15.32-43.61-32.57-60.81-53.63Zm.1,34.59c-12.36,12-25.93,22.86-39.3,33.35-33.23,26.08-69.88,53.12-92,90.93-20.18,34.59-10.12,77.65,4.54,115.24a775.21,775.21,0,0,1,253.17,0c14.66-37.59,24.72-80.64,4.54-115.23-29.38-50.33-88.59-82.89-131-124.28ZM325-559.92c-5.4,77.41,97,76.52,35.23,171.93,12.11,1.22,35.54,4.35,47.59,6.15,15.94-36.19,15.82-65,4.77-88.35-13.76-29.12-58.24-58.09-87.59-89.73Zm-585.93,14.45C-223-491.61-111-522.35-20.4-473.27c46.84,25.36,72,71.38,79.46,172.22A766,766,0,0,0-209.26-146.13C-292.88-203-320.13-247.81-318.68-301.06c1.41-51.56,22.8-97.76,40.35-138.53s31.22-76,17.39-105.86c-.12-.23-.12-.23,0,0ZM854.87,1387.19c-37.93-53.86-149.88-23.12-240.53-72.2-46.83-25.36-72-71.38-79.45-172.22A765.86,765.86,0,0,0,803.2,987.85c83.62,56.86,110.88,101.68,109.42,154.93-1.4,51.56-22.79,97.76-40.35,138.53s-31.21,76-17.38,105.86c.11.23.12.23,0,0Zm-27.77-48.08c3.86-23.76,13.56-47.2,22.38-68.46,17.51-42.2,36.39-84.88,37.1-131.9a111.79,111.79,0,0,0-1.46-20.24c-7.45-44.29-48-80.47-84.3-107.08A769.39,769.39,0,0,1,556.5,1152.5c4.91,44.7,16,97.94,50.58,126.54a111.71,111.71,0,0,0,16.8,11.38c38.26,21.32,81.42,27.19,123.74,32.65,25,3.23,54,6.4,79.48,16Zm-17.38-29.9c4.71-16.54,11-32.77,17.35-48.54,15.74-39.2,34-80.94,34.17-124.72.18-40-30.06-72.3-61.55-97.53A774.87,774.87,0,0,1,580.44,1165c6.1,39.88,18.91,82.2,53.69,102.06,50.6,28.91,118.16,27.49,175.59,42.14Zm-46.64-25c-34-69.74-122.27-17.77-116.47-131.28-11.1,5-33,14-44.29,18.47,4.29,39.3,18.79,64.18,40,78.9,26.48,18.34,79.49,21.18,120.72,33.91ZM-233.15-497.39c-3.86,23.76-13.56,47.2-22.38,68.46C-273-386.73-291.92-344-292.63-297a111.79,111.79,0,0,0,1.46,20.24c7.45,44.29,48,80.47,84.29,107.08A769.58,769.58,0,0,1,37.45-310.78c-4.91-44.7-16-97.94-50.59-126.54a110.7,110.7,0,0,0-16.8-11.38C-68.2-470-111.35-475.89-153.67-481.35c-25.05-3.23-54.05-6.4-79.48-16Zm17.38,29.91c-4.72,16.53-11,32.76-17.36,48.53-15.73,39.2-33.95,80.94-34.16,124.72-.19,40,30.06,72.3,61.55,97.53A774.87,774.87,0,0,1,13.51-323.29c-6.1-39.88-18.92-82.2-53.69-102.06-50.6-28.91-118.17-27.49-175.59-42.13Zm46.64,24.94c34,69.74,122.27,17.77,116.47,131.28,11.1-5,32.95-14,44.29-18.46C-12.66-369-27.16-393.9-48.42-408.63-74.89-427-127.9-429.82-169.13-442.54ZM-669.34-137.06C-609.57-109.38-528-192-424.94-194.79-371.7-196.25-326.87-169-270-85.37A766,766,0,0,0-424.93,183c-100.84-7.43-146.86-32.63-172.22-79.46-24.57-45.36-29.14-96.06-34.33-140.15s-11-81.43-37.87-100.37c-.21-.15-.22-.14,0,0ZM1263.29,978.78c-59.78-27.68-141.36,54.92-244.4,57.73-53.24,1.46-98.07-25.8-154.93-109.42a765.78,765.78,0,0,0,154.92-268.32c100.84,7.43,146.86,32.63,172.22,79.46,24.57,45.36,29.14,96.06,34.32,140.15s11,81.43,37.88,100.37c.21.15.22.14,0,0ZM1215.2,951c-8.54-22.5-11.86-47.65-14.85-70.47-5.93-45.31-10.93-91.7-33.82-132.78a111.2,111.2,0,0,0-11.38-16.8c-28.6-34.63-81.84-45.67-126.54-50.59A769.71,769.71,0,0,1,887.55,924.72c26.6,36.25,62.78,76.84,107.08,84.29a111.66,111.66,0,0,0,20.24,1.46c43.79-.67,84.1-17.17,123.48-33.6,23.31-9.72,50-21.48,76.85-25.85Zm-30-17.2c-4.19-16.68-6.84-33.89-9.24-50.71-6-41.82-11.06-87.08-32.77-125.1-19.87-34.77-62.18-47.59-102.07-53.68A775.15,775.15,0,0,1,914.54,923.58c25.22,31.49,57.48,61.73,97.52,61.55,58.28-.28,116.08-35.28,173.14-51.31Zm-52.87,1.71c-64.33-43.38-114.77,45.75-166.51-55.46-7.1,9.89-21.53,28.61-29.12,38.14,23.37,31.9,48.36,46.19,74.13,48.31,32.1,2.65,79.43-21.39,121.5-31ZM-621.25-109.31c8.54,22.51,11.86,47.66,14.85,70.48,5.93,45.31,10.92,91.7,33.81,132.78a112,112,0,0,0,11.39,16.8c28.59,34.63,81.84,45.67,126.54,50.59A769.71,769.71,0,0,1-293.6-83c-26.61-36.25-62.79-76.84-107.08-84.29a111.66,111.66,0,0,0-20.24-1.46c-43.79.67-84.1,17.17-123.48,33.6-23.31,9.72-50,21.48-76.85,25.84Zm30,17.21c4.19,16.68,6.83,33.89,9.24,50.71,6,41.82,11.06,87.08,32.77,125.09,19.86,34.78,62.18,47.6,102.07,53.69A775.15,775.15,0,0,1-320.59-81.86c-25.22-31.49-57.48-61.73-97.53-61.55-58.27.28-116.07,35.28-173.13,51.31Zm52.87-1.71C-474-50.43-423.61-139.56-371.87-38.35c7.1-9.89,21.53-28.61,29.12-38.14-23.37-31.9-48.36-46.19-74.13-48.31-32.1-2.65-79.43,21.39-121.5,31ZM1412.79,420.88c-65.61,5.91-95,118.24-182.79,172.19-45.39,27.88-97.83,26.69-188.88-17.29a765.93,765.93,0,0,0,0-309.83c91.05-44,143.49-45.18,188.88-17.3,44,27,73.26,68.62,99.8,104.21s50.21,65,83,68c.25,0,.25,0,0,0Zm-55.53,0c-18.65-15.22-34.09-35.34-48.09-53.61-27.8-36.27-55.32-73.95-95.68-98.08a111.45,111.45,0,0,0-18.26-8.85c-42.08-15.7-93.71,1.36-134.88,19.46a769.48,769.48,0,0,1,0,282.12c41.17,18.1,92.8,35.16,134.88,19.46a111.45,111.45,0,0,0,18.26-8.85c37.6-22.48,64.25-56.92,90.14-90.84,15.33-20.07,32.57-43.6,53.63-60.81Zm-34.59.1c-12-12.35-22.85-25.93-33.35-39.29-26.08-33.24-53.12-69.89-90.93-91.95-34.58-20.19-77.64-10.12-115.23,4.53a774.9,774.9,0,0,1,0,253.18c37.59,14.66,80.65,24.72,115.23,4.53,50.34-29.37,82.89-88.59,124.28-131Zm-44.92,27.92c-77.41-5.4-76.52,97-171.93,35.23-1.21,12.11-4.34,35.54-6.15,47.59,36.19,15.93,65,15.81,88.36,4.77,29.12-13.76,58.09-58.25,89.72-87.59ZM-763.32,420.84c18.66,15.22,34.1,35.34,48.1,53.61,27.8,36.27,55.32,73.95,95.68,98.08a111.45,111.45,0,0,0,18.26,8.85c42.08,15.7,93.71-1.36,134.88-19.46a769.48,769.48,0,0,1,0-282.12c-41.18-18.1-92.8-35.16-134.89-19.47a112.21,112.21,0,0,0-18.25,8.86c-37.6,22.47-64.25,56.92-90.14,90.84-15.33,20.07-32.57,43.6-53.64,60.81Zm34.59-.1c12,12.35,22.86,25.93,33.35,39.29,26.09,33.23,53.13,69.88,90.94,92,34.58,20.18,77.64,10.12,115.23-4.54a774.84,774.84,0,0,1,0-253.17c-37.59-14.66-80.65-24.72-115.23-4.53-50.34,29.37-82.89,88.59-124.29,131Zm44.93-27.92c77.4,5.4,76.52-97,171.93-35.23,1.21-12.11,4.34-35.54,6.15-47.59-36.19-15.94-65-15.82-88.36-4.77-29.12,13.76-58.09,58.24-89.72,87.59ZM1263.3-137c-53.86,37.92-23.11,149.88-72.2,240.52-25.36,46.83-71.38,72-172.22,79.46A765.78,765.78,0,0,0,864-85.37C920.82-169,965.65-196.25,1018.89-194.79c51.57,1.41,97.76,22.8,138.53,40.35s76,31.21,105.87,17.38c.23-.11.22-.11,0,0Zm-48.08,27.76c-23.76-3.85-47.2-13.55-68.46-22.37-42.2-17.52-84.88-36.39-131.89-37.11a112.57,112.57,0,0,0-20.24,1.46c-44.3,7.45-80.48,48-107.08,84.3a769.51,769.51,0,0,1,141.06,244.33c44.71-4.92,98-16,126.54-50.59A112,112,0,0,0,1166.54,94c21.32-38.26,27.18-81.42,32.64-123.74,3.23-25.05,6.4-54,16-79.48Zm-29.9,17.39c-16.54-4.72-32.76-11-48.53-17.36-39.21-15.74-81-34-124.73-34.16-40-.19-72.3,30.05-97.52,61.54A775.39,775.39,0,0,1,1041.12,137.4c39.89-6.11,82.21-18.92,102.07-53.69,28.9-50.61,27.48-118.17,42.13-175.59Zm-25,46.63c-69.74,34-17.76,122.27-131.28,116.48,5,11.09,14,33,18.47,44.29,39.31-4.3,64.18-18.79,78.9-40C1144.8,49,1147.65-4,1160.37-45.25ZM-621.28,951c23.77,3.86,47.21,13.56,68.46,22.38,42.21,17.52,84.88,36.39,131.9,37.1a111.65,111.65,0,0,0,20.24-1.45c44.29-7.45,80.47-48,107.08-84.3A769.8,769.8,0,0,1-434.66,680.38c-44.71,4.92-97.95,16-126.54,50.59a112,112,0,0,0-11.39,16.8c-21.32,38.26-27.18,81.42-32.64,123.74-3.24,25-6.4,54-16,79.47Zm29.91-17.38c16.54,4.72,32.76,11,48.53,17.36,39.21,15.74,81,34,124.72,34.16,40.05.19,72.31-30,97.53-61.54A775.1,775.1,0,0,1-447.18,704.32c-39.88,6.1-82.2,18.92-102.06,53.69-28.9,50.61-27.49,118.17-42.13,175.59Zm25-46.64c69.74-34,17.76-122.26,131.28-116.47-5-11.09-14-33-18.47-44.29-39.31,4.29-64.18,18.79-78.9,40-18.34,26.47-21.19,79.48-33.91,120.71Z" transform="translate(836.89 713)"/><path class="cls-1" d="M192.91,565.41H88a66.61,66.61,0,0,1-23.76-4.33l-1.35,4.33H-8.57c-26.32,0-50.59-15.25-61.85-41.67l-6.17-14.47-17.59,56.11-143.91.12,0-.09H-345.23c-50.08,0-81.08-51.77-65-102.62l37.38-118.48c8.78-27.83,21.78-53.2,47.37-66,13.92-7,27.61-8.27,42.67-8.27h136.61v0l48.29,0H-64c27.94,0,49.81,16.36,61.76,43.05L11.24,270H284.86v0h33.86l141.67,0c21.75-.4,42.72,6,58.26,21.72,19.68-14.57,42.67-21.74,67-21.73h73.5l-.14-.35H820.38l16.68,47.16,46.67-47.16h116.94l5.41,30.5,2.39,37.26L866.39,480.82,840.1,565.06H768.57L698.66,565l13.41-43c-22.88,33.4-55.89,42.85-98.78,43.41H518.12a74.45,74.45,0,0,1-33.18-8.1l-2,6.94-145,.12,20.81-66.58h0l-21.47,67.6-144.36.12,0-.09Z" transform="translate(836.89 713)"/><path class="cls-2" d="M237.8,530.51H88c-20.39,0-34.83-15.14-37.07-34.89L40.07,530.51H-8.57c-13.63,0-26.81-7.21-32.9-21.51l-39.65-92.93L-117,530.5l-76.78.07,0-.06H-345.23c-27.37,0-44-27.27-34.84-56.34l37.38-118.48c5.77-18.3,13.85-37.34,30.5-45.69,9.31-4.67,19.33-5.09,29.35-5.09h159.62v0l25.28,0H-64c16.18,0,27.51,9.38,34.09,25.89L1.4,409.32,34.07,304.91h76.39L104,325.52c4.46-6.51,10-12,17-15.52,9.31-4.67,19.33-5.09,29.36-5.09H460.69c15.82-.34,32.24,4.07,41.79,19.48,5.31,8.58,7.2,18.5,7,28.59a99.64,99.64,0,0,1,17.33-23.93c16.45-16.54,36.86-24.15,58.79-24.15h96.65c9.25,0,19.25,1,28.06,4.8l-2.1-5.15h90.24l25.74,72.75,72-72.75H994L838.77,461.18l-21.52,69H768.6l-25.33,0L768,450.76,733.2,365.57c-.15.88-.3,1.76-.46,2.64l-2.43,13.14H718.38L590.6,381.3H590l-.61-.06c-10.32-1-14.68,6.75-18.19,16.65l-15.33,48.28,0,.12a45,45,0,0,0-2.14,9.25,14.06,14.06,0,0,0,1.67.27h27.4l-2.16-68.1H728.51L698,478.53l-.14.35c-17.12,44.46-44.87,51.11-84.9,51.63H518.54c-12.62-.18-24.53-4.9-33.14-15.59-7.71-9.56-11.11-21.56-11.65-34l-14.16,48.43-77,.06,6.88-22,14.18-45.35c-.63,0-1.2,0-1.6,0H402l-66.08,1.2L314.51,530.5l-76.73.07,0-.06Zm23.35-74.7,1.23-3.93H136.23L135,455.81Zm7.4-23.64,15.89-50.82-126.51-.1-.28.91H267l1.59,50Zm218.07-11.24A53.88,53.88,0,0,1,478,430a38.82,38.82,0,0,1,2.91,9.17l5.71-18.24Zm-655.79,30.95H-297l-1.2,3.93H-170.4l1.23-3.93Zm4.61-14.76,17.44-55.77-128.22-.1-.28.91H-166.3l1.74,55Zm588-46.41c.36-.79.72-1.76,1-2.44l4.17-10-65.84.42-4.19,13.18,59.67-.71h.25a23,23,0,0,0,4.95-.42Z" transform="translate(836.89 713)"/><path class="cls-3" d="M352.4,362.22l-14.73,46.37,80.72-1c14.82.1,16.72-6.12,19.32-12.37l6.84-16.46c2.72-6.57-.3-17.15-9.19-17.1l-83,.52Zm-16.17,50.92L304.18,514l-45.69,0L318.73,321.4l142.11,0c33.26-.79,39.8,22.87,29.67,55.4S470.4,424,444.61,424.76c13.74,1.42,29.1,12.16,19.47,36.46L449,512.87l-45.69,0,15.27-48.85c2.75-11.65-1.16-18.95-16.92-18.47l-63.93,1.16-1.47-33.61ZM-200.61,514H-345.23c-15.8,0-27.3-14.45-21-34.32l37.38-118.48c11.76-37.27,23.45-39.8,46-39.8h142.9l-13.68,43.44-132.16-.11-10.42,33.93h115.75l1.17,36.71H-295.35l-1.14-35.78-22.34,72.72h131.35L-200.61,514Zm230.29,0H-8.57c-7.58,0-16-3.44-19.68-12.16L-83.2,373.09-127.37,514l-45.7,0,60.24-192.65H-64c9.19,0,16,4.27,20.72,16.15L3.05,453.75l41.4-132.34H89.78L29.68,514Zm777.18-.35H764l19.89-63.73-52.7-128.87h57.4l29.84,84.33,83.46-84.33h53.81L826.19,451.72l-19.33,61.94ZM557.47,392.06l-15.38,48.42c-6.75,20.21-2.22,30.53,12.6,31.84h47.73c29.29-.06,34.84,1.1,47.37-31.39H597l-1.16-36.71H707.28l-22.92,68.1C671,507.05,651.75,513.5,612.74,514h-94c-28.66-.42-36.7-30.88-25.69-63.95l23.58-75.4c5.56-17.79,24.75-53.26,69-53.25h96.58c29.81.15,42.11,11.26,36.16,43.44l-127.77-.05c-16.76-1.59-26.82,9.33-33.14,27.26ZM232.65,514H88c-15.79,0-27.29-14.45-21-34.32l37.38-118.48c11.76-37.27,23.44-39.8,46-39.8H293.32l-13.68,43.44-132.15-.11-10.43,33.93H252.82L254,435.38H137.91l-1.13-35.78-22.34,72.72H245.79L232.65,514Z" transform="translate(836.89 713)"/></svg>