<svg id="Capa_1" data-name="Capa 1" xmlns="http://www.w3.org/2000/svg" viewBox="0 0 512 512"><defs><style>.cls-1{fill:#f1902e;}</style></defs><path class="cls-1" d="M512,195V45A45.07,45.07,0,0,0,467,0H227a45.07,45.07,0,0,0-45,45v75H75a45.05,45.05,0,0,0-45,45V392H15A15,15,0,0,0,0,407v30a75.09,75.09,0,0,0,75,75H437a75.08,75.08,0,0,0,75-75V407a15,15,0,0,0-15-15H482V237.42A45.09,45.09,0,0,0,512,195ZM460.79,30,357.61,133.18a15,15,0,0,1-21.22,0L233.21,30ZM392,141.21,460.79,210H233.21L302,141.21l13.18,13.18a45,45,0,0,0,63.64,0Zm-180-90L280.79,120,212,188.79ZM60,165a15,15,0,0,1,15-15H182v45a45.08,45.08,0,0,0,45,45H452V392H347a15,15,0,0,0-15,15v15H180V407a15,15,0,0,0-15-15H60ZM482,437a45.05,45.05,0,0,1-45,45H75a45.05,45.05,0,0,1-45-45V422H150v15a15,15,0,0,0,15,15H347a15,15,0,0,0,15-15V422H482ZM413.21,120,482,51.21V188.79Z" transform="translate(0 0)"/></svg>