<svg id="Layer_1" data-name="Layer 1" xmlns="http://www.w3.org/2000/svg" viewBox="0 0 512 415.6"><defs><style>.cls-1{fill:#f1902e;}</style></defs><path class="cls-1" d="M488.26,250.08l-45-62.94a63.29,63.29,0,0,0-51.43-26.47H351.33V63.2a15,15,0,0,0-15-15H15a15,15,0,0,0-15,15V400.6a15,15,0,0,0,15,15H66.08a63.19,63.19,0,0,0,122.77,0h134.3a63.19,63.19,0,0,0,122.77,0H497a15,15,0,0,0,15-15V324.17a126.84,126.84,0,0,0-23.74-74.09ZM127.47,433.8a33.2,33.2,0,1,1,33.2-33.2A33.23,33.23,0,0,1,127.47,433.8Zm193.86-48.2H188.87a63.21,63.21,0,0,0-122.8,0H30V78.2H321.33Zm63.2,48.2a33.2,33.2,0,1,1,33.2-33.2A33.24,33.24,0,0,1,384.53,433.8ZM482,385.6H445.94a63.19,63.19,0,0,0-94.61-38.76V190.67h40.53a33.26,33.26,0,0,1,27,13.9l45,62.95A96.92,96.92,0,0,1,482,324.17Z" transform="translate(0 -48.2)"/></svg>