<svg id="Layer_1" data-name="Layer 1" xmlns="http://www.w3.org/2000/svg" viewBox="0 0 270.39 98.13"><defs><style>.cls-1{fill:#78797a;}</style></defs><path class="cls-1" d="M438.56,239.38c.19,1.16.29,2.08.5,3a18.65,18.65,0,0,0,17.24,14.72c7.58.58,13.55-2.35,18-8.5a5.51,5.51,0,0,1,8.54-1.06,3.35,3.35,0,0,1,.52,4.95c-.69.92-1.4,1.82-2.07,2.76a22.77,22.77,0,0,1-11.36,8.29c-7.56,2.65-15.22,3-22.72.25C437.06,260.08,431,252.69,429.33,242A30,30,0,0,1,432,223.13c4.32-8.37,11.11-13.59,20.5-15a30.57,30.57,0,0,1,18.16,2.37c8.21,3.91,13.2,10.49,15.13,19.34a63.66,63.66,0,0,1,.93,7.32c.15,1.53-.54,2.23-2.09,2.3-.71,0-1.42,0-2.13,0h-43.9Zm38.31-9.19c-1.19-7.85-10.7-14.72-19.45-14.23-9.05.5-18.22,7.48-18.54,14.23Z" transform="translate(-263.46 -187.54)"/><path class="cls-1" d="M375.89,239.18c.12.84.19,1.42.29,2A18.94,18.94,0,0,0,394.86,257a19.21,19.21,0,0,0,16.78-8.65,5.55,5.55,0,0,1,8.79-.74,3.28,3.28,0,0,1,.32,4.59c-.55.75-1.15,1.47-1.68,2.24a23.46,23.46,0,0,1-12.49,9.14c-7.55,2.47-15.15,2.73-22.54-.16-10.54-4.12-16.38-12.07-17.6-23.34a29.57,29.57,0,0,1,2.19-15.61c4.28-9.4,11.44-15.19,21.84-16.6a30.65,30.65,0,0,1,16.14,1.83c9.2,3.83,14.65,10.85,16.63,20.56A53.08,53.08,0,0,1,424,237c.13,1.83-.31,2.22-2.19,2.23l-10,0H375.89ZM414.22,230c-1.25-7.79-10.42-14.43-19.37-14.19C386.1,216,376.93,223,376.21,230Z" transform="translate(-263.46 -187.54)"/><path class="cls-1" d="M515.23,243.58c.67.62,1.08,1,1.52,1.4l14.65,12.49c.33.28.68.56,1,.86a4.41,4.41,0,0,1,.34,6.22,4.3,4.3,0,0,1-6.06.48c-3.39-2.79-6.7-5.67-10-8.51l-14.28-12.16c-.44-.38-.9-.74-1.65-1.35,0,1-.07,1.64-.07,2.27v34.55c0,.54,0,1.09,0,1.64a4.37,4.37,0,0,1-4.57,4.2,4.31,4.31,0,0,1-4.23-4.36c0-.55,0-1.1,0-1.65V211.55c0-.71,0-1.42,0-2.14,0-1.59.22-1.88,1.73-1.92,2.08-.06,4.16-.07,6.25-.07,5,0,10.1.2,15.13-.06,8.41-.43,17.84,6.42,18.73,16.28a17.83,17.83,0,0,1-14.27,19.09C518.09,243,516.83,243.25,515.23,243.58Zm-15.27-7a11.34,11.34,0,0,0,1.25.14c4.21,0,8.43,0,12.64,0a12.86,12.86,0,0,0,3.56-.5c3.93-1.23,7-3.52,8-7.74a11.09,11.09,0,0,0-10.92-13.7c-4.32,0-8.65,0-13,0-.48,0-1,.06-1.52.1Z" transform="translate(-263.46 -187.54)"/><path class="cls-1" d="M352,239.51h-24.6c0,.72-.08,1.36-.08,2,0,6.3,0,12.61,0,18.91a7.79,7.79,0,0,1-.24,2.27,4.35,4.35,0,0,1-4.45,3,4.48,4.48,0,0,1-4.08-3.88,10.27,10.27,0,0,1-.05-1.47q0-33.72,0-67.43a7.72,7.72,0,0,1,.37-2.58,4.31,4.31,0,0,1,4.75-2.7,4.38,4.38,0,0,1,3.65,3.89,18,18,0,0,1,0,1.8q0,17.35,0,34.71c0,.69.05,1.39.08,2,1.47.38,22.88.4,24.51,0,0-.54.08-1.13.08-1.71,0-5.1,0-10.2,0-15.3,0-.49,0-1,0-1.48a4.4,4.4,0,0,1,8.75-.2,10.27,10.27,0,0,1,0,1.47v47.37a12.19,12.19,0,0,1,0,1.48,4.4,4.4,0,0,1-8.77-.2c0-.49,0-1,0-1.48v-20.5Z" transform="translate(-263.46 -187.54)"/><path class="cls-1" d="M288.42,265.89a32.41,32.41,0,0,1-16.48-4.44,21.5,21.5,0,0,1-5.77-4.84,18.78,18.78,0,0,1-2.16-3.28,3.67,3.67,0,0,1,.94-4.89c1.75-1.6,4.13-2.32,6.44-.68a23.15,23.15,0,0,1,3,2.76c.88.89,1.63,1.92,2.51,2.81a15.71,15.71,0,0,0,9.79,4.57A22.6,22.6,0,0,0,297.1,257a16.07,16.07,0,0,0,4-2.14,5,5,0,0,0,.19-8.18,18,18,0,0,0-4.52-2.6,81.76,81.76,0,0,0-12.34-4c-3.4-.83-6.75-1.87-10.08-2.93a24.1,24.1,0,0,1-3.74-1.69,10,10,0,0,1-5.48-7.91c-1-7.1,1.67-12.75,8.11-15.92,9.81-4.84,19.71-5.17,29.42.35a33.18,33.18,0,0,1,5.08,3.86,8.44,8.44,0,0,1,2.47,4c.78,2.6-.53,3.93-2.78,4.43a5.15,5.15,0,0,1-5.2-1.74,8.75,8.75,0,0,1-.72-.89,14.32,14.32,0,0,0-9.6-6.06,21.58,21.58,0,0,0-11.81.91,14.05,14.05,0,0,0-3.93,2.32c-2.7,2.29-2.68,5.42-.1,7.84a13.31,13.31,0,0,0,5.93,3.05c4.83,1.23,9.67,2.38,14.5,3.59a37.62,37.62,0,0,1,8.89,3.37c3.56,1.94,6.23,4.67,7.09,8.79,1.06,5,0,9.41-3.9,13a26.77,26.77,0,0,1-15.44,7C291.59,265.66,290,265.75,288.42,265.89Z" transform="translate(-263.46 -187.54)"/></svg>