<svg width="194" height="60" viewBox="0 0 194 60" fill="none" xmlns="http://www.w3.org/2000/svg">
<path d="M9.85449 17.9932H12.0957C14.1904 17.9932 15.7578 17.583 16.7979 16.7627C17.8379 15.9277 18.3579 14.7192 18.3579 13.1372C18.3579 11.5405 17.9185 10.3613 17.0396 9.59961C16.1753 8.83789 14.813 8.45703 12.9526 8.45703H9.85449V17.9932ZM25.2354 12.8955C25.2354 16.3525 24.1514 18.9966 21.9834 20.8276C19.8301 22.6587 16.7612 23.5742 12.7769 23.5742H9.85449V35H3.04297V2.87598H13.3042C17.2007 2.87598 20.1597 3.71826 22.1812 5.40283C24.2173 7.07275 25.2354 9.57031 25.2354 12.8955Z" fill="white"/>
<path d="M36.1118 22.6733C36.1118 25.105 36.5073 26.9434 37.2983 28.1885C38.104 29.4336 39.4077 30.0562 41.2095 30.0562C42.9966 30.0562 44.2783 29.4409 45.0547 28.2104C45.8457 26.9653 46.2412 25.1196 46.2412 22.6733C46.2412 20.2417 45.8457 18.418 45.0547 17.2021C44.2637 15.9863 42.9673 15.3784 41.1655 15.3784C39.3784 15.3784 38.0894 15.9863 37.2983 17.2021C36.5073 18.4033 36.1118 20.2271 36.1118 22.6733ZM53.0967 22.6733C53.0967 26.6724 52.042 29.7998 49.9326 32.0557C47.8232 34.3115 44.8862 35.4395 41.1216 35.4395C38.7632 35.4395 36.6831 34.9268 34.8813 33.9014C33.0796 32.8613 31.6953 31.3745 30.7285 29.4409C29.7617 27.5073 29.2783 25.2515 29.2783 22.6733C29.2783 18.6597 30.3257 15.5396 32.4204 13.313C34.5151 11.0864 37.4595 9.97314 41.2534 9.97314C43.6118 9.97314 45.6919 10.4858 47.4937 11.5112C49.2954 12.5366 50.6797 14.0088 51.6465 15.9277C52.6133 17.8467 53.0967 20.0952 53.0967 22.6733Z" fill="white"/>
<path d="M72.3447 9.97314C73.2529 9.97314 74.0073 10.0391 74.6079 10.1709L74.1025 16.4551C73.5605 16.3086 72.9014 16.2354 72.125 16.2354C69.9863 16.2354 68.3164 16.7847 67.1152 17.8833C65.9287 18.9819 65.3354 20.52 65.3354 22.4976V35H58.6338V10.4346H63.7095L64.6982 14.5654H65.0278C65.7896 13.1885 66.8149 12.0825 68.104 11.2476C69.4077 10.3979 70.8213 9.97314 72.3447 9.97314Z" fill="white"/>
<path d="M89.4175 30.1001C90.5894 30.1001 91.9956 29.8438 93.6362 29.3311V34.3188C91.9663 35.0659 89.9155 35.4395 87.4839 35.4395C84.8032 35.4395 82.8477 34.7656 81.6172 33.418C80.4014 32.0557 79.7935 30.0195 79.7935 27.3096V15.4663H76.5854V12.6318L80.2769 10.3906L82.2104 5.20508H86.4951V10.4346H93.3726V15.4663H86.4951V27.3096C86.4951 28.2617 86.7588 28.9648 87.2861 29.4189C87.8281 29.873 88.5386 30.1001 89.4175 30.1001Z" fill="white"/>
<path d="M112.203 15.4663H106.402V35H99.7007V15.4663H96.0093V12.2363L99.7007 10.4346V8.63281C99.7007 5.83496 100.389 3.7915 101.766 2.50244C103.143 1.21338 105.348 0.568848 108.38 0.568848C110.694 0.568848 112.752 0.913086 114.554 1.60156L112.84 6.52344C111.493 6.09863 110.248 5.88623 109.105 5.88623C108.153 5.88623 107.464 6.17188 107.04 6.74316C106.615 7.2998 106.402 8.01758 106.402 8.89648V10.4346H112.203V15.4663Z" fill="white"/>
<path d="M121.41 22.6733C121.41 25.105 121.805 26.9434 122.596 28.1885C123.402 29.4336 124.706 30.0562 126.507 30.0562C128.294 30.0562 129.576 29.4409 130.353 28.2104C131.144 26.9653 131.539 25.1196 131.539 22.6733C131.539 20.2417 131.144 18.418 130.353 17.2021C129.562 15.9863 128.265 15.3784 126.463 15.3784C124.676 15.3784 123.387 15.9863 122.596 17.2021C121.805 18.4033 121.41 20.2271 121.41 22.6733ZM138.395 22.6733C138.395 26.6724 137.34 29.7998 135.23 32.0557C133.121 34.3115 130.184 35.4395 126.419 35.4395C124.061 35.4395 121.981 34.9268 120.179 33.9014C118.377 32.8613 116.993 31.3745 116.026 29.4409C115.06 27.5073 114.576 25.2515 114.576 22.6733C114.576 18.6597 115.624 15.5396 117.718 13.313C119.813 11.0864 122.757 9.97314 126.551 9.97314C128.91 9.97314 130.99 10.4858 132.792 11.5112C134.593 12.5366 135.978 14.0088 136.944 15.9277C137.911 17.8467 138.395 20.0952 138.395 22.6733Z" fill="white"/>
<path d="M150.633 35H143.932V0.810547H150.633V35Z" fill="white"/>
<path d="M157.401 4.08447C157.401 1.90186 158.617 0.810547 161.048 0.810547C163.48 0.810547 164.696 1.90186 164.696 4.08447C164.696 5.12451 164.388 5.9375 163.773 6.52344C163.172 7.09473 162.264 7.38037 161.048 7.38037C158.617 7.38037 157.401 6.28174 157.401 4.08447ZM164.388 35H157.687V10.4346H164.388V35Z" fill="white"/>
<path d="M176.781 22.6733C176.781 25.105 177.176 26.9434 177.967 28.1885C178.773 29.4336 180.077 30.0562 181.878 30.0562C183.666 30.0562 184.947 29.4409 185.724 28.2104C186.515 26.9653 186.91 25.1196 186.91 22.6733C186.91 20.2417 186.515 18.418 185.724 17.2021C184.933 15.9863 183.636 15.3784 181.834 15.3784C180.047 15.3784 178.758 15.9863 177.967 17.2021C177.176 18.4033 176.781 20.2271 176.781 22.6733ZM193.766 22.6733C193.766 26.6724 192.711 29.7998 190.602 32.0557C188.492 34.3115 185.555 35.4395 181.791 35.4395C179.432 35.4395 177.352 34.9268 175.55 33.9014C173.749 32.8613 172.364 31.3745 171.397 29.4409C170.431 27.5073 169.947 25.2515 169.947 22.6733C169.947 18.6597 170.995 15.5396 173.089 13.313C175.184 11.0864 178.128 9.97314 181.922 9.97314C184.281 9.97314 186.361 10.4858 188.163 11.5112C189.964 12.5366 191.349 14.0088 192.315 15.9277C193.282 17.8467 193.766 20.0952 193.766 22.6733Z" fill="white"/>
<path d="M14.5391 44.5781L11.4844 56H10.1484L7.88281 48.3125C7.8151 48.0938 7.75 47.875 7.6875 47.6562C7.63021 47.4323 7.57552 47.2214 7.52344 47.0234C7.47135 46.8203 7.42708 46.6432 7.39062 46.4922C7.35938 46.3359 7.33594 46.2188 7.32031 46.1406C7.3099 46.2188 7.28906 46.3333 7.25781 46.4844C7.23177 46.6354 7.19531 46.8099 7.14844 47.0078C7.10677 47.2057 7.05469 47.4167 6.99219 47.6406C6.9349 47.8646 6.8724 48.0911 6.80469 48.3203L4.60156 56H3.26562L0.234375 44.5781H1.61719L3.45312 51.7422C3.51562 51.9818 3.57292 52.2188 3.625 52.4531C3.68229 52.6823 3.73177 52.9062 3.77344 53.125C3.82031 53.3438 3.86198 53.5573 3.89844 53.7656C3.9349 53.974 3.96875 54.1771 4 54.375C4.02604 54.1719 4.0599 53.9609 4.10156 53.7422C4.14323 53.5182 4.1875 53.2917 4.23438 53.0625C4.28646 52.8333 4.34115 52.6016 4.39844 52.3672C4.46094 52.1328 4.52604 51.8984 4.59375 51.6641L6.64844 44.5781H8.01562L10.1562 51.7188C10.2292 51.9635 10.2969 52.2057 10.3594 52.4453C10.4219 52.6849 10.4766 52.9193 10.5234 53.1484C10.5755 53.3724 10.6198 53.5885 10.6562 53.7969C10.6979 54 10.7344 54.1927 10.7656 54.375C10.8021 54.1198 10.8464 53.8516 10.8984 53.5703C10.9505 53.2891 11.0104 52.9948 11.0781 52.6875C11.151 52.3802 11.2292 52.0625 11.3125 51.7344L13.1484 44.5781H14.5391Z" fill="white"/>
<path d="M19.4453 47.2812C20.1745 47.2812 20.7995 47.4427 21.3203 47.7656C21.8411 48.0885 22.2396 48.5417 22.5156 49.125C22.7917 49.7031 22.9297 50.3802 22.9297 51.1562V51.9609H17.0156C17.0312 52.9661 17.2812 53.7318 17.7656 54.2578C18.25 54.7839 18.9323 55.0469 19.8125 55.0469C20.3542 55.0469 20.8333 54.9974 21.25 54.8984C21.6667 54.7995 22.099 54.6536 22.5469 54.4609V55.6016C22.1146 55.7943 21.6849 55.9349 21.2578 56.0234C20.8359 56.112 20.3359 56.1562 19.7578 56.1562C18.9349 56.1562 18.2161 55.9896 17.6016 55.6562C16.9922 55.3177 16.5182 54.8229 16.1797 54.1719C15.8411 53.5208 15.6719 52.724 15.6719 51.7812C15.6719 50.8594 15.8255 50.0625 16.1328 49.3906C16.4453 48.7135 16.8828 48.1927 17.4453 47.8281C18.013 47.4635 18.6797 47.2812 19.4453 47.2812ZM19.4297 48.3438C18.737 48.3438 18.1849 48.5703 17.7734 49.0234C17.362 49.4766 17.1172 50.1094 17.0391 50.9219H21.5703C21.5651 50.4115 21.4844 49.9635 21.3281 49.5781C21.1771 49.1875 20.9453 48.8854 20.6328 48.6719C20.3203 48.4531 19.9193 48.3438 19.4297 48.3438Z" fill="white"/>
<path d="M26.4297 43.8438V46.8828C26.4297 47.2318 26.4193 47.5703 26.3984 47.8984C26.3828 48.2266 26.3698 48.4818 26.3594 48.6641H26.4297C26.6641 48.2786 27.0026 47.9531 27.4453 47.6875C27.888 47.4219 28.4531 47.2891 29.1406 47.2891C30.2135 47.2891 31.0677 47.6615 31.7031 48.4062C32.3438 49.1458 32.6641 50.2474 32.6641 51.7109C32.6641 52.6745 32.5182 53.487 32.2266 54.1484C31.9349 54.8099 31.5234 55.3099 30.9922 55.6484C30.4609 55.987 29.8333 56.1562 29.1094 56.1562C28.4323 56.1562 27.875 56.0312 27.4375 55.7812C27.0052 55.526 26.6719 55.2161 26.4375 54.8516H26.3359L26.0703 56H25.1328V43.8438H26.4297ZM28.9297 48.375C28.3099 48.375 27.8177 48.4974 27.4531 48.7422C27.0885 48.9818 26.8255 49.3464 26.6641 49.8359C26.5078 50.3203 26.4297 50.9349 26.4297 51.6797V51.75C26.4297 52.8281 26.6094 53.6536 26.9688 54.2266C27.3281 54.7943 27.9818 55.0781 28.9297 55.0781C29.7266 55.0781 30.3229 54.7865 30.7188 54.2031C31.1198 53.6198 31.3203 52.7865 31.3203 51.7031C31.3203 50.599 31.1224 49.7682 30.7266 49.2109C30.3359 48.6536 29.737 48.375 28.9297 48.375Z" fill="white"/>
<path d="M42.1328 56.1562C41.0495 56.1562 40.1901 55.7865 39.5547 55.0469C38.9245 54.3073 38.6094 53.2083 38.6094 51.75C38.6094 50.276 38.9323 49.1641 39.5781 48.4141C40.224 47.6589 41.0833 47.2812 42.1562 47.2812C42.6094 47.2812 43.0052 47.3411 43.3438 47.4609C43.6823 47.5807 43.974 47.7422 44.2188 47.9453C44.4635 48.1432 44.6693 48.3698 44.8359 48.625H44.9297C44.9089 48.4635 44.888 48.2422 44.8672 47.9609C44.8464 47.6797 44.8359 47.4505 44.8359 47.2734V43.8438H46.1328V56H45.0859L44.8906 54.7812H44.8359C44.6745 55.0365 44.4688 55.2682 44.2188 55.4766C43.974 55.6849 43.6797 55.8516 43.3359 55.9766C42.9974 56.0964 42.5964 56.1562 42.1328 56.1562ZM42.3359 55.0781C43.2526 55.0781 43.901 54.8177 44.2812 54.2969C44.6615 53.776 44.8516 53.0026 44.8516 51.9766V51.7422C44.8516 50.6536 44.6693 49.8177 44.3047 49.2344C43.9453 48.651 43.2891 48.3594 42.3359 48.3594C41.5391 48.3594 40.9427 48.6667 40.5469 49.2812C40.151 49.8906 39.9531 50.724 39.9531 51.7812C39.9531 52.8333 40.1484 53.6458 40.5391 54.2188C40.9349 54.7917 41.5339 55.0781 42.3359 55.0781Z" fill="white"/>
<path d="M52.1797 47.2812C52.9089 47.2812 53.5339 47.4427 54.0547 47.7656C54.5755 48.0885 54.974 48.5417 55.25 49.125C55.526 49.7031 55.6641 50.3802 55.6641 51.1562V51.9609H49.75C49.7656 52.9661 50.0156 53.7318 50.5 54.2578C50.9844 54.7839 51.6667 55.0469 52.5469 55.0469C53.0885 55.0469 53.5677 54.9974 53.9844 54.8984C54.401 54.7995 54.8333 54.6536 55.2812 54.4609V55.6016C54.849 55.7943 54.4193 55.9349 53.9922 56.0234C53.5703 56.112 53.0703 56.1562 52.4922 56.1562C51.6693 56.1562 50.9505 55.9896 50.3359 55.6562C49.7266 55.3177 49.2526 54.8229 48.9141 54.1719C48.5755 53.5208 48.4062 52.724 48.4062 51.7812C48.4062 50.8594 48.5599 50.0625 48.8672 49.3906C49.1797 48.7135 49.6172 48.1927 50.1797 47.8281C50.7474 47.4635 51.4141 47.2812 52.1797 47.2812ZM52.1641 48.3438C51.4714 48.3438 50.9193 48.5703 50.5078 49.0234C50.0964 49.4766 49.8516 50.1094 49.7734 50.9219H54.3047C54.2995 50.4115 54.2188 49.9635 54.0625 49.5781C53.9115 49.1875 53.6797 48.8854 53.3672 48.6719C53.0547 48.4531 52.6536 48.3438 52.1641 48.3438Z" fill="white"/>
<path d="M59.75 56L56.5 47.4375H57.8906L59.7734 52.6172C59.9036 52.9714 60.0365 53.362 60.1719 53.7891C60.3073 54.2161 60.401 54.5599 60.4531 54.8203H60.5078C60.5703 54.5599 60.6745 54.2161 60.8203 53.7891C60.9661 53.3568 61.099 52.9661 61.2188 52.6172L63.1016 47.4375H64.4922L61.2344 56H59.75Z" fill="white"/>
<path d="M73.25 51.7031C73.25 52.4062 73.1589 53.0339 72.9766 53.5859C72.7943 54.138 72.5312 54.6042 72.1875 54.9844C71.8438 55.3646 71.4271 55.6562 70.9375 55.8594C70.4531 56.0573 69.9036 56.1562 69.2891 56.1562C68.7161 56.1562 68.1901 56.0573 67.7109 55.8594C67.237 55.6562 66.8255 55.3646 66.4766 54.9844C66.1328 54.6042 65.8646 54.138 65.6719 53.5859C65.4844 53.0339 65.3906 52.4062 65.3906 51.7031C65.3906 50.7656 65.5495 49.9688 65.8672 49.3125C66.1849 48.651 66.638 48.1484 67.2266 47.8047C67.8203 47.4557 68.526 47.2812 69.3438 47.2812C70.125 47.2812 70.8073 47.4557 71.3906 47.8047C71.9792 48.1536 72.4349 48.6589 72.7578 49.3203C73.0859 49.9766 73.25 50.7708 73.25 51.7031ZM66.7344 51.7031C66.7344 52.3906 66.8255 52.987 67.0078 53.4922C67.1901 53.9974 67.4714 54.388 67.8516 54.6641C68.2318 54.9401 68.7214 55.0781 69.3203 55.0781C69.9141 55.0781 70.401 54.9401 70.7812 54.6641C71.1667 54.388 71.4505 53.9974 71.6328 53.4922C71.8151 52.987 71.9062 52.3906 71.9062 51.7031C71.9062 51.0208 71.8151 50.4323 71.6328 49.9375C71.4505 49.4375 71.1693 49.0521 70.7891 48.7812C70.4089 48.5104 69.9167 48.375 69.3125 48.375C68.4219 48.375 67.7682 48.6693 67.3516 49.2578C66.9401 49.8464 66.7344 50.6615 66.7344 51.7031Z" fill="white"/>
<path d="M76.7969 56H75.4922V43.8438H76.7969V56Z" fill="white"/>
<path d="M82.8359 47.2812C83.5651 47.2812 84.1901 47.4427 84.7109 47.7656C85.2318 48.0885 85.6302 48.5417 85.9062 49.125C86.1823 49.7031 86.3203 50.3802 86.3203 51.1562V51.9609H80.4062C80.4219 52.9661 80.6719 53.7318 81.1562 54.2578C81.6406 54.7839 82.3229 55.0469 83.2031 55.0469C83.7448 55.0469 84.224 54.9974 84.6406 54.8984C85.0573 54.7995 85.4896 54.6536 85.9375 54.4609V55.6016C85.5052 55.7943 85.0755 55.9349 84.6484 56.0234C84.2266 56.112 83.7266 56.1562 83.1484 56.1562C82.3255 56.1562 81.6068 55.9896 80.9922 55.6562C80.3828 55.3177 79.9089 54.8229 79.5703 54.1719C79.2318 53.5208 79.0625 52.724 79.0625 51.7812C79.0625 50.8594 79.2161 50.0625 79.5234 49.3906C79.8359 48.7135 80.2734 48.1927 80.8359 47.8281C81.4036 47.4635 82.0703 47.2812 82.8359 47.2812ZM82.8203 48.3438C82.1276 48.3438 81.5755 48.5703 81.1641 49.0234C80.7526 49.4766 80.5078 50.1094 80.4297 50.9219H84.9609C84.9557 50.4115 84.875 49.9635 84.7188 49.5781C84.5677 49.1875 84.3359 48.8854 84.0234 48.6719C83.7109 48.4531 83.3099 48.3438 82.8203 48.3438Z" fill="white"/>
<path d="M92.5469 47.2812C93.6146 47.2812 94.4661 47.6484 95.1016 48.3828C95.737 49.1172 96.0547 50.2214 96.0547 51.6953C96.0547 52.6693 95.9089 53.487 95.6172 54.1484C95.3255 54.8099 94.9141 55.3099 94.3828 55.6484C93.8568 55.987 93.2344 56.1562 92.5156 56.1562C92.0625 56.1562 91.6641 56.0964 91.3203 55.9766C90.9766 55.8568 90.6823 55.6953 90.4375 55.4922C90.1927 55.2891 89.9896 55.0677 89.8281 54.8281H89.7344C89.75 55.0312 89.7682 55.276 89.7891 55.5625C89.8151 55.849 89.8281 56.099 89.8281 56.3125V59.8281H88.5234V47.4375H89.5938L89.7656 48.7031H89.8281C89.9948 48.4427 90.1979 48.2057 90.4375 47.9922C90.6771 47.7734 90.9688 47.6016 91.3125 47.4766C91.6615 47.3464 92.0729 47.2812 92.5469 47.2812ZM92.3203 48.375C91.7266 48.375 91.2474 48.4896 90.8828 48.7188C90.5234 48.9479 90.2604 49.2917 90.0938 49.75C89.9271 50.2031 89.8385 50.7734 89.8281 51.4609V51.7109C89.8281 52.4349 89.9062 53.0469 90.0625 53.5469C90.224 54.0469 90.487 54.4271 90.8516 54.6875C91.2214 54.9479 91.7161 55.0781 92.3359 55.0781C92.8672 55.0781 93.3099 54.9349 93.6641 54.6484C94.0182 54.362 94.2812 53.9635 94.4531 53.4531C94.6302 52.9375 94.7188 52.3464 94.7188 51.6797C94.7188 50.6693 94.5208 49.8672 94.125 49.2734C93.7344 48.6745 93.1328 48.375 92.3203 48.375Z" fill="white"/>
<path d="M101.617 47.2812C102.346 47.2812 102.971 47.4427 103.492 47.7656C104.013 48.0885 104.411 48.5417 104.688 49.125C104.964 49.7031 105.102 50.3802 105.102 51.1562V51.9609H99.1875C99.2031 52.9661 99.4531 53.7318 99.9375 54.2578C100.422 54.7839 101.104 55.0469 101.984 55.0469C102.526 55.0469 103.005 54.9974 103.422 54.8984C103.839 54.7995 104.271 54.6536 104.719 54.4609V55.6016C104.286 55.7943 103.857 55.9349 103.43 56.0234C103.008 56.112 102.508 56.1562 101.93 56.1562C101.107 56.1562 100.388 55.9896 99.7734 55.6562C99.1641 55.3177 98.6901 54.8229 98.3516 54.1719C98.013 53.5208 97.8438 52.724 97.8438 51.7812C97.8438 50.8594 97.9974 50.0625 98.3047 49.3906C98.6172 48.7135 99.0547 48.1927 99.6172 47.8281C100.185 47.4635 100.852 47.2812 101.617 47.2812ZM101.602 48.3438C100.909 48.3438 100.357 48.5703 99.9453 49.0234C99.5339 49.4766 99.2891 50.1094 99.2109 50.9219H103.742C103.737 50.4115 103.656 49.9635 103.5 49.5781C103.349 49.1875 103.117 48.8854 102.805 48.6719C102.492 48.4531 102.091 48.3438 101.602 48.3438Z" fill="white"/>
<path d="M111.195 47.2812C111.367 47.2812 111.547 47.2917 111.734 47.3125C111.922 47.3281 112.089 47.3516 112.234 47.3828L112.07 48.5859C111.93 48.5495 111.773 48.5208 111.602 48.5C111.43 48.4792 111.268 48.4688 111.117 48.4688C110.773 48.4688 110.448 48.5391 110.141 48.6797C109.839 48.8151 109.573 49.013 109.344 49.2734C109.115 49.5286 108.935 49.8385 108.805 50.2031C108.674 50.5625 108.609 50.9635 108.609 51.4062V56H107.305V47.4375H108.383L108.523 49.0156H108.578C108.755 48.6979 108.969 48.4089 109.219 48.1484C109.469 47.8828 109.758 47.6719 110.086 47.5156C110.419 47.3594 110.789 47.2812 111.195 47.2812Z" fill="white"/>
</svg>
