<svg width="12" height="12" viewBox="0 0 12 12" fill="none" xmlns="http://www.w3.org/2000/svg">
<path d="M0.414191 6.668C0.283691 6.82 0.220191 7.0135 0.235691 7.2135C0.251191 7.4135 0.343191 7.5955 0.495691 7.7255L4.19719 10.8985C4.33469 11.016 4.50519 11.079 4.68419 11.079C4.70619 11.079 4.72869 11.078 4.75119 11.076C4.95369 11.058 5.13619 10.9615 5.26519 10.805L11.5962 3.0995C11.7232 2.9445 11.7827 2.7495 11.7632 2.55C11.7432 2.3505 11.6477 2.1705 11.4927 2.043L10.3337 1.091C10.0142 0.828996 9.54119 0.874996 9.27819 1.1945L4.40569 7.125L2.44769 5.4475C2.13369 5.1795 1.65969 5.215 1.39019 5.529L0.414191 6.668Z" fill="#FFE06D"/>
</svg>
