<svg width="693" height="248" viewBox="0 0 693 248" fill="none" xmlns="http://www.w3.org/2000/svg">
<g opacity="0.07">
<path d="M0 193.536V156.199L113.372 4.11049H171.776L60.8086 156.199L33.6681 148.32H222.965V193.536H0ZM129.519 243.89V193.536L131.237 148.32V103.448H183.8V243.89H129.519Z" fill="url(#paint0_linear_1115_42454)"/>
<path d="M342.677 248C322.98 248 305.344 243.204 289.77 233.613C274.195 223.794 261.942 209.635 253.01 191.138C244.077 172.641 239.611 150.262 239.611 124C239.611 97.7385 244.077 75.3591 253.01 56.8619C261.942 38.3646 274.195 24.3204 289.77 14.7293C305.344 4.90976 322.98 0 342.677 0C362.603 0 380.238 4.90976 395.584 14.7293C411.158 24.3204 423.411 38.3646 432.344 56.8619C441.276 75.3591 445.742 97.7385 445.742 124C445.742 150.262 441.276 172.641 432.344 191.138C423.411 209.635 411.158 223.794 395.584 233.613C380.238 243.204 362.603 248 342.677 248ZM342.677 201.072C352.067 201.072 360.198 198.446 367.069 193.193C374.169 187.941 379.666 179.606 383.559 168.188C387.682 156.77 389.743 142.041 389.743 124C389.743 105.959 387.682 91.2302 383.559 79.8121C379.666 68.3941 374.169 60.0589 367.069 54.8066C360.198 49.5543 352.067 46.9282 342.677 46.9282C333.515 46.9282 325.385 49.5543 318.284 54.8066C311.413 60.0589 305.917 68.3941 301.794 79.8121C297.9 91.2302 295.954 105.959 295.954 124C295.954 142.041 297.9 156.77 301.794 168.188C305.917 179.606 311.413 187.941 318.284 193.193C325.385 198.446 333.515 201.072 342.677 201.072Z" fill="url(#paint1_linear_1115_42454)"/>
<path d="M470.035 193.536V156.199L583.407 4.11049H641.811L530.844 156.199L503.703 148.32H693V193.536H470.035ZM599.554 243.89V193.536L601.272 148.32V103.448H653.835V243.89H599.554Z" fill="url(#paint2_linear_1115_42454)"/>
</g>
<defs>
<linearGradient id="paint0_linear_1115_42454" x1="693" y1="168.673" x2="-264.676" y2="168.673" gradientUnits="userSpaceOnUse">
<stop stop-color="#7F7F7F"/>
<stop offset="1" stop-color="#7F7F7F" stop-opacity="0"/>
</linearGradient>
<linearGradient id="paint1_linear_1115_42454" x1="693" y1="168.673" x2="-264.676" y2="168.673" gradientUnits="userSpaceOnUse">
<stop stop-color="#7F7F7F"/>
<stop offset="1" stop-color="#7F7F7F" stop-opacity="0"/>
</linearGradient>
<linearGradient id="paint2_linear_1115_42454" x1="693" y1="168.673" x2="-264.676" y2="168.673" gradientUnits="userSpaceOnUse">
<stop stop-color="#7F7F7F"/>
<stop offset="1" stop-color="#7F7F7F" stop-opacity="0"/>
</linearGradient>
</defs>
</svg>
