<svg width="8" height="8" viewBox="0 0 8 8" fill="none" xmlns="http://www.w3.org/2000/svg">
<path d="M5.29289 4.20711L6 4.91421L7.41421 3.5L6.70711 2.79289L5.29289 4.20711ZM4 1.5L4.70711 0.792893L4 0.0857863L3.29289 0.792893L4 1.5ZM1.29289 2.79289L0.585786 3.5L2 4.91421L2.70711 4.20711L1.29289 2.79289ZM6.70711 2.79289L4.70711 0.792893L3.29289 2.20711L5.29289 4.20711L6.70711 2.79289ZM3.29289 0.792893L1.29289 2.79289L2.70711 4.20711L4.70711 2.20711L3.29289 0.792893ZM3 1.5L3 8L5 8L5 1.5L3 1.5Z" fill="black"/>
</svg>
