<svg width="16" height="17" viewBox="0 0 16 17" fill="none" xmlns="http://www.w3.org/2000/svg">
<path d="M0.533203 0.5V5.3C0.533203 6.47821 1.48833 7.43333 2.66654 7.43333C3.84474 7.43333 4.79987 6.47821 4.79987 5.3V2.1C4.79987 1.5109 4.32231 1.03333 3.7332 1.03333C3.1441 1.03333 2.66654 1.5109 2.66654 2.1V5.83333M6.39987 1.03333H13.3332C13.9223 1.03333 14.3999 1.5109 14.3999 2.1V14.9C14.3999 15.4891 13.9223 15.9667 13.3332 15.9667H2.66654C2.07743 15.9667 1.59987 15.4891 1.59987 14.9V9.03333M11.7332 5.3H7.46654M11.7332 8.5H7.46654M11.7332 11.7H4.26654" stroke="#111111"/>
</svg>
