<svg width="100" height="100" viewBox="0 0 100 100" fill="none" xmlns="http://www.w3.org/2000/svg">
<path d="M12.5 81.25C8.86825 81.25 6.25 84.0482 6.25 87.5C6.25 90.9518 8.86825 93.75 12.5 93.75C16.1317 93.75 18.75 90.9518 18.75 87.5M12.5 81.25C16.1317 81.25 18.75 84.0482 18.75 87.5M12.5 81.25V50H25M18.75 87.5H56.25M56.25 87.5C56.25 84.0482 58.8683 81.25 62.5 81.25M56.25 87.5C56.25 90.9518 58.8683 93.75 62.5 93.75C66.1317 93.75 68.75 90.9518 68.75 87.5C68.75 84.0482 66.1317 81.25 62.5 81.25M62.5 81.25V56.25M25 50V25H50L56.25 50M25 50V68.75H37.5H50L56.25 50M56.25 50L62.5 56.25M62.5 56.25H81.25M81.25 56.25V6.25M81.25 56.25V87.5H100" stroke="white" stroke-width="2"/>
</svg>
