<svg width="100" height="100" viewBox="0 0 100 100" fill="none" xmlns="http://www.w3.org/2000/svg">
<path d="M9.9987 63.3334H16.6654C20.3473 63.3334 23.332 66.3181 23.332 70V90C23.332 93.6819 20.3473 96.6667 16.6654 96.6667H9.9987C6.3168 96.6667 3.33203 93.6819 3.33203 90V70C3.33203 66.3181 6.3168 63.3334 9.9987 63.3334ZM9.9987 63.3334V43.3334C9.9987 21.242 27.9073 3.33337 49.9987 3.33337C72.0901 3.33337 89.9987 21.242 89.9987 43.3334V63.3334M89.9987 63.3334H83.332C79.6501 63.3334 76.6654 66.3181 76.6654 70V90C76.6654 93.6819 79.6501 96.6667 83.332 96.6667H89.9987C93.6806 96.6667 96.6654 93.6819 96.6654 90V70C96.6654 66.3181 93.6806 63.3334 89.9987 63.3334Z" stroke="white" stroke-width="2"/>
</svg>
