<svg width="100" height="100" viewBox="0 0 100 100" fill="none" xmlns="http://www.w3.org/2000/svg">
<path d="M68.8547 68.8562C58.4407 79.2702 41.5563 79.2702 31.1423 68.8562M68.8547 68.8562C79.2687 58.4422 79.2687 41.5578 68.8547 31.1439M68.8547 68.8562L82.997 82.9984M31.1423 68.8562C20.7283 58.4422 20.7283 41.5578 31.1423 31.1439M31.1423 68.8562L17.0004 82.9984M68.8547 31.1439C58.4407 20.7299 41.5563 20.7299 31.1423 31.1439M68.8547 31.1439L82.997 17.0017M31.1423 31.1439L17.0004 17.0017M82.997 82.9984C64.7725 101.223 35.2248 101.223 17.0004 82.9984M82.997 82.9984C101.221 64.7739 101.221 35.2262 82.997 17.0017M17.0004 82.9984C-1.22408 64.7739 -1.22408 35.2262 17.0004 17.0017M82.997 17.0017C64.7725 -1.22274 35.2248 -1.22274 17.0004 17.0017" stroke="white" stroke-width="2"/>
</svg>
