<svg width="16" height="16" viewBox="0 0 16 16" fill="none" xmlns="http://www.w3.org/2000/svg">
<path d="M0 13.3334H16M0 15.4668H16M2.66667 4.26678V2.66678H4.26667M11.7333 2.66678H13.3333V4.26678M2.66667 7.46678V9.06678H4.26667M11.7333 9.06678H13.3333V7.46678M8 8.00011C6.82179 8.00011 5.86667 7.04499 5.86667 5.86678C5.86667 4.68857 6.82179 3.73345 8 3.73345C9.17821 3.73345 10.1333 4.68857 10.1333 5.86678C10.1333 7.04499 9.17821 8.00011 8 8.00011ZM1.6 0.533447H14.4C14.9891 0.533447 15.4667 1.01101 15.4667 1.60011V10.1334C15.4667 10.7226 14.9891 11.2001 14.4 11.2001H1.6C1.0109 11.2001 0.533333 10.7226 0.533333 10.1334V1.60011C0.533333 1.01101 1.0109 0.533447 1.6 0.533447Z" stroke="black"/>
</svg>
