<svg width="36" height="36" viewBox="0 0 36 36" fill="none" xmlns="http://www.w3.org/2000/svg">
<path d="M0 29.9999H36M0 34.7999H36M6 9.59995V5.99995H9.6M26.4 5.99995H30V9.59995M6 16.8V20.4H9.6M26.4 20.4H30V16.8M18 18C15.349 18 13.2 15.8509 13.2 13.2C13.2 10.549 15.349 8.39995 18 8.39995C20.651 8.39995 22.8 10.549 22.8 13.2C22.8 15.8509 20.651 18 18 18ZM3.6 1.19995H32.4C33.7255 1.19995 34.8 2.27447 34.8 3.59995V22.7999C34.8 24.1254 33.7255 25.1999 32.4 25.1999H3.6C2.27452 25.1999 1.2 24.1254 1.2 22.7999V3.59995C1.2 2.27447 2.27452 1.19995 3.6 1.19995Z" stroke="black"/>
</svg>
