<svg width="36" height="36" viewBox="0 0 36 36" fill="none" xmlns="http://www.w3.org/2000/svg">
<path d="M28.7992 20.4H20.3992V28.7999M33.5992 20.4H35.9992M28.7992 34.7999H19.1992M26.3992 27.5999H34.7992V35.9999M7.19922 8.39995H9.59922M26.3992 8.39995H28.7992M7.19922 27.5999H9.59922M3.59922 1.19995H13.1992C14.5247 1.19995 15.5992 2.27447 15.5992 3.59995V13.2C15.5992 14.5254 14.5247 15.6 13.1992 15.6H3.59922C2.27374 15.6 1.19922 14.5254 1.19922 13.2V3.59995C1.19922 2.27447 2.27374 1.19995 3.59922 1.19995ZM22.7992 1.19995H32.3992C33.7247 1.19995 34.7992 2.27447 34.7992 3.59995V13.2C34.7992 14.5254 33.7247 15.6 32.3992 15.6H22.7992C21.4737 15.6 20.3992 14.5254 20.3992 13.2V3.59995C20.3992 2.27447 21.4737 1.19995 22.7992 1.19995ZM3.59922 20.4H13.1992C14.5247 20.4 15.5992 21.4745 15.5992 22.7999V32.3999C15.5992 33.7254 14.5247 34.7999 13.1992 34.7999H3.59922C2.27374 34.7999 1.19922 33.7254 1.19922 32.3999V22.7999C1.19922 21.4745 2.27374 20.4 3.59922 20.4Z" stroke="black"/>
</svg>
