<svg width="16" height="16" viewBox="0 0 16 16" fill="none" xmlns="http://www.w3.org/2000/svg">
<path d="M1.59961 0.533447V0.0334473C1.32347 0.0334473 1.09961 0.257305 1.09961 0.533447L1.59961 0.533447ZM14.3996 0.533447H14.8996C14.8996 0.257305 14.6758 0.0334473 14.3996 0.0334473V0.533447ZM14.3996 15.4668L14.176 15.914C14.331 15.9915 14.5151 15.9832 14.6625 15.8921C14.8099 15.801 14.8996 15.6401 14.8996 15.4668H14.3996ZM12.2663 14.4001L12.4899 13.9529C12.3491 13.8825 12.1834 13.8825 12.0427 13.9529L12.2663 14.4001ZM10.1329 15.4668L9.90934 15.914C10.0501 15.9844 10.2158 15.9844 10.3566 15.914L10.1329 15.4668ZM7.99961 14.4001L8.22322 13.9529C8.08245 13.8825 7.91677 13.8825 7.776 13.9529L7.99961 14.4001ZM5.86628 15.4668L5.64267 15.914C5.78343 15.9844 5.94912 15.9844 6.08988 15.914L5.86628 15.4668ZM1.59961 15.4668H1.09961C1.09961 15.6401 1.18934 15.801 1.33674 15.8921C1.48415 15.9832 1.66822 15.9915 1.82322 15.914L1.59961 15.4668ZM3.73294 14.4001L3.95655 13.9529C3.81579 13.8825 3.6501 13.8825 3.50934 13.9529L3.73294 14.4001ZM1.59961 1.03345H14.3996V0.0334473H1.59961V1.03345ZM13.8996 0.533447V15.4668H14.8996V0.533447H13.8996ZM14.6232 15.0196L12.4899 13.9529L12.0427 14.8473L14.176 15.914L14.6232 15.0196ZM12.0427 13.9529L9.90934 15.0196L10.3566 15.914L12.4899 14.8473L12.0427 13.9529ZM10.3566 15.0196L8.22322 13.9529L7.776 14.8473L9.90934 15.914L10.3566 15.0196ZM7.776 13.9529L5.64267 15.0196L6.08988 15.914L8.22322 14.8473L7.776 13.9529ZM2.09961 15.4668V0.533447H1.09961V15.4668H2.09961ZM6.08988 15.0196L3.95655 13.9529L3.50934 14.8473L5.64267 15.914L6.08988 15.0196ZM3.50934 13.9529L1.376 15.0196L1.82322 15.914L3.95655 14.8473L3.50934 13.9529ZM4.26628 5.30011H6.39961V4.30011H4.26628V5.30011ZM8.53294 5.30011H11.7329V4.30011H8.53294V5.30011ZM4.26628 8.50011H6.39961V7.50011H4.26628V8.50011ZM8.53294 8.50011H11.7329V7.50011H8.53294V8.50011ZM8.53294 11.7001H11.7329V10.7001H8.53294V11.7001Z" fill="black"/>
</svg>
