<svg width="36" height="36" viewBox="0 0 36 36" fill="none" xmlns="http://www.w3.org/2000/svg">
<path d="M3.59961 1.19995V0.699951C3.32347 0.699951 3.09961 0.923809 3.09961 1.19995H3.59961ZM32.3996 1.19995H32.8996C32.8996 0.923809 32.6758 0.699951 32.3996 0.699951V1.19995ZM32.3996 34.7999L32.176 35.2472C32.331 35.3247 32.5151 35.3164 32.6625 35.2253C32.8099 35.1342 32.8996 34.9732 32.8996 34.7999H32.3996ZM27.5996 32.4L27.8232 31.9527C27.6825 31.8824 27.5168 31.8824 27.376 31.9527L27.5996 32.4ZM22.7996 34.7999L22.576 35.2472C22.7168 35.3175 22.8825 35.3175 23.0232 35.2472L22.7996 34.7999ZM17.9996 32.4L18.2232 31.9527C18.0825 31.8824 17.9168 31.8824 17.776 31.9527L17.9996 32.4ZM13.1996 34.7999L12.976 35.2472C13.1168 35.3175 13.2825 35.3175 13.4232 35.2472L13.1996 34.7999ZM3.59961 34.7999H3.09961C3.09961 34.9732 3.18934 35.1342 3.33674 35.2253C3.48415 35.3164 3.66822 35.3247 3.82322 35.2472L3.59961 34.7999ZM8.39961 32.4L8.62322 31.9527C8.48245 31.8824 8.31677 31.8824 8.176 31.9527L8.39961 32.4ZM3.59961 1.69995H32.3996V0.699951H3.59961V1.69995ZM31.8996 1.19995V34.7999H32.8996V1.19995H31.8996ZM32.6232 34.3527L27.8232 31.9527L27.376 32.8472L32.176 35.2472L32.6232 34.3527ZM27.376 31.9527L22.576 34.3527L23.0232 35.2472L27.8232 32.8472L27.376 31.9527ZM23.0232 34.3527L18.2232 31.9527L17.776 32.8472L22.576 35.2472L23.0232 34.3527ZM17.776 31.9527L12.976 34.3527L13.4232 35.2472L18.2232 32.8472L17.776 31.9527ZM4.09961 34.7999V1.19995H3.09961V34.7999H4.09961ZM13.4232 34.3527L8.62322 31.9527L8.176 32.8472L12.976 35.2472L13.4232 34.3527ZM8.176 31.9527L3.376 34.3527L3.82322 35.2472L8.62322 32.8472L8.176 31.9527ZM9.59961 11.3H14.3996V10.3H9.59961V11.3ZM19.1996 11.3H26.3996V10.3H19.1996V11.3ZM9.59961 18.5H14.3996V17.5H9.59961V18.5ZM19.1996 18.5H26.3996V17.5H19.1996V18.5ZM19.1996 25.6999H26.3996V24.6999H19.1996V25.6999Z" fill="black"/>
</svg>
