<svg width="108" height="108" viewBox="0 0 108 108" fill="none" xmlns="http://www.w3.org/2000/svg">
<g filter="url(#filter0_d_52_264)">
<path d="M34.8175 0C31.6263 0 29 2.62625 29 5.8175V40.6104C29 43.8016 31.6263 46.4279 34.8175 46.4279H73.1818C76.373 46.4279 78.9993 43.8016 78.9993 40.6104V5.8175C78.9993 2.62625 76.373 0 73.1818 0L34.8175 0ZM50.4041 10.7582H57.5964C58.5158 10.7582 59.2608 11.5039 59.2615 12.4232V17.9541H64.7924C65.7117 17.9541 66.4567 18.6998 66.4574 19.6192V26.8115C66.4574 27.7309 65.7117 28.4758 64.7924 28.4765H59.2615V34.0074C59.2615 34.9268 58.5158 35.6718 57.5964 35.6725L50.4041 35.6704C49.4847 35.6704 48.7391 34.9254 48.7391 34.006V28.4751H43.2082C42.2888 28.4751 41.5438 27.7295 41.5438 26.8101V19.6178C41.5438 18.6984 42.2895 17.9534 43.2089 17.9527H48.7398L48.7391 12.4226C48.7391 11.5032 49.4847 10.7582 50.4041 10.7575V10.7582Z" fill="url(#paint0_linear_52_264)"/>
<path d="M5.78571 14.2857C4.79939 14.2857 4 15.0851 4 16.0714V28.6621C4 29.6485 4.79939 30.4478 5.78571 30.4478H25.4286V14.2857H5.78571Z" fill="url(#paint1_linear_52_264)"/>
<path d="M82.5723 14.2857V30.4478H102.215C103.201 30.4478 104.001 29.6485 104.001 28.6621V16.0714C104.001 15.0851 103.201 14.2857 102.215 14.2857H82.5723Z" fill="url(#paint2_linear_52_264)"/>
<path d="M7.57227 34.0197V94.6429C7.57227 97.5802 9.99209 100 12.9294 100H36.1437V62.5C36.1437 61.5137 36.9431 60.7143 37.9294 60.7143H70.0723C71.0586 60.7143 71.858 61.5137 71.858 62.5V100H95.0723C98.0096 100 100.429 97.5802 100.429 94.6429V34.0197H82.5723V40.6114C82.5723 45.7622 78.3341 50.0004 73.1833 50.0004H34.8191C29.6683 50.0004 25.4301 45.7622 25.4301 40.6114V34.0197H7.57227ZM82.8169 53.7107H89.9598C90.4334 53.7107 90.8875 53.8991 91.2223 54.2339C91.5571 54.5687 91.7455 55.0228 91.7455 55.4964C91.7455 55.9701 91.5571 56.4242 91.2223 56.759C90.8875 57.0938 90.4334 57.2822 89.9598 57.2822H82.8169C81.8306 57.2822 81.0312 56.4828 81.0312 55.4964C81.0312 54.5101 81.8306 53.7107 82.8169 53.7107ZM17.8794 54.7152H25.0223C25.4959 54.7152 25.95 54.9035 26.2848 55.2383C26.6196 55.5732 26.808 56.0273 26.808 56.5009C26.808 56.9745 26.6196 57.4286 26.2848 57.7635C25.95 58.0983 25.4959 58.2866 25.0223 58.2866H17.8794C16.8931 58.2866 16.0937 57.4872 16.0937 56.5009C16.0937 55.5146 16.8931 54.7152 17.8794 54.7152ZM39.7169 64.2855V99.9998H52.2169V64.2855H39.7169ZM55.7883 64.2855V99.9998H68.2883V64.2855H55.7883ZM82.8187 64.4251H89.9616C90.4352 64.4251 90.8893 64.6134 91.2241 64.9482C91.5589 65.283 91.7473 65.7371 91.7473 66.2108C91.7473 66.6844 91.5589 67.1385 91.2241 67.4733C90.8893 67.8082 90.4352 67.9965 89.9616 67.9965H82.8187C81.8324 67.9965 81.033 67.1971 81.033 66.2108C81.033 65.2245 81.8324 64.4251 82.8187 64.4251ZM17.8812 65.4295H25.0241C25.4977 65.4295 25.9518 65.6179 26.2866 65.9527C26.6214 66.2875 26.8098 66.7416 26.8098 67.2152C26.8098 67.6889 26.6214 68.143 26.2866 68.4778C25.9518 68.8126 25.4977 69.0009 25.0241 69.0009H17.8812C16.8949 69.0009 16.0955 68.2016 16.0955 67.2152C16.0955 66.2289 16.8949 65.4295 17.8812 65.4295ZM82.8187 75.1393H89.9616C90.4352 75.1393 90.8893 75.3277 91.2241 75.6625C91.5589 75.9973 91.7473 76.4514 91.7473 76.9251C91.7473 77.3987 91.5589 77.8528 91.2241 78.1876C90.8893 78.5224 90.4352 78.7108 89.9616 78.7108H82.8187C81.8324 78.7108 81.033 77.9114 81.033 76.9251C81.033 75.9387 81.8324 75.1393 82.8187 75.1393ZM17.8812 76.1438H25.0241C25.4977 76.1438 25.9518 76.3322 26.2866 76.667C26.6214 77.0018 26.8098 77.4559 26.8098 77.9295C26.8098 78.4031 26.6214 78.8573 26.2866 79.1921C25.9518 79.5269 25.4977 79.7152 25.0241 79.7152H17.8812C16.8949 79.7152 16.0955 78.9158 16.0955 77.9295C16.0955 76.9432 16.8949 76.1438 17.8812 76.1438ZM82.8187 85.8536H89.9616C90.4352 85.8536 90.8893 86.042 91.2241 86.3768C91.5589 86.7116 91.7473 87.1657 91.7473 87.6394C91.7473 88.113 91.5589 88.5671 91.2241 88.9019C90.8893 89.2367 90.4352 89.4251 89.9616 89.4251H82.8187C81.8324 89.4251 81.033 88.6257 81.033 87.6394C81.033 86.653 81.8324 85.8536 82.8187 85.8536ZM17.8812 86.8581H25.0241C25.4977 86.8581 25.9518 87.0464 26.2866 87.3813C26.6214 87.7161 26.8098 88.1702 26.8098 88.6438C26.8098 89.1174 26.6214 89.5715 26.2866 89.9064C25.9518 90.2412 25.4977 90.4295 25.0241 90.4295H17.8812C16.8949 90.4295 16.0955 89.6301 16.0955 88.6438C16.0955 87.6575 16.8949 86.8581 17.8812 86.8581Z" fill="url(#paint3_linear_52_264)"/>
</g>
<defs>
<filter id="filter0_d_52_264" x="0" y="0" width="108" height="108" filterUnits="userSpaceOnUse" color-interpolation-filters="sRGB">
<feFlood flood-opacity="0" result="BackgroundImageFix"/>
<feColorMatrix in="SourceAlpha" type="matrix" values="0 0 0 0 0 0 0 0 0 0 0 0 0 0 0 0 0 0 127 0" result="hardAlpha"/>
<feOffset dy="4"/>
<feGaussianBlur stdDeviation="2"/>
<feComposite in2="hardAlpha" operator="out"/>
<feColorMatrix type="matrix" values="0 0 0 0 0 0 0 0 0 0 0 0 0 0 0 0 0 0 0.25 0"/>
<feBlend mode="normal" in2="BackgroundImageFix" result="effect1_dropShadow_52_264"/>
<feBlend mode="normal" in="SourceGraphic" in2="effect1_dropShadow_52_264" result="shape"/>
</filter>
<linearGradient id="paint0_linear_52_264" x1="29" y1="23.2139" x2="78.9993" y2="23.2139" gradientUnits="userSpaceOnUse">
<stop stop-color="#191E88"/>
<stop offset="1" stop-color="#00AC00"/>
</linearGradient>
<linearGradient id="paint1_linear_52_264" x1="4" y1="22.3668" x2="25.4286" y2="22.3668" gradientUnits="userSpaceOnUse">
<stop stop-color="#191E88"/>
<stop offset="1" stop-color="#00AC00"/>
</linearGradient>
<linearGradient id="paint2_linear_52_264" x1="82.5723" y1="22.3668" x2="104.001" y2="22.3668" gradientUnits="userSpaceOnUse">
<stop stop-color="#191E88"/>
<stop offset="1" stop-color="#00AC00"/>
</linearGradient>
<linearGradient id="paint3_linear_52_264" x1="7.57227" y1="67.0098" x2="100.429" y2="67.0098" gradientUnits="userSpaceOnUse">
<stop stop-color="#191E88"/>
<stop offset="1" stop-color="#00AC00"/>
</linearGradient>
</defs>
</svg>
