<svg width="91" height="100" viewBox="0 0 91 100" fill="none" xmlns="http://www.w3.org/2000/svg">
<path d="M72.2427 57.1742C73.9153 59.9312 74.9043 63.294 75.1024 66.691C78.3256 67.4211 80.7402 70.2966 80.7402 73.7285C80.7402 77.7106 77.4929 80.9503 73.5014 80.9503C69.5099 80.9503 66.2626 77.7106 66.2626 73.7285C66.2626 70.3438 68.6112 67.5033 71.7652 66.7244C71.4444 62.1167 69.3669 57.4843 66.0071 55.3445C65.1921 55.2011 64.364 55.0848 63.5265 55.0081C63.4053 60.4117 45.4945 73.658 45.4945 73.658C45.4952 73.6572 27.5844 60.4117 27.4671 55.0089C26.3989 55.1066 25.35 55.2655 24.3176 55.4732C21.7081 57.3333 19.6012 60.9628 19.4854 65.3713C20.1303 65.7449 20.6523 66.3223 20.9747 67.0245C23.3535 68.1444 25.4541 70.502 27.063 73.8588C27.3326 74.4245 27.3667 75.0624 27.1702 75.6445C28.1343 78.1206 28.6859 80.828 28.6859 83.1012C28.6859 86.2867 28.6859 89.2991 25.2055 90.072C24.8279 90.3851 24.3572 90.5564 23.8615 90.5564H21.5364C20.3703 90.5564 19.4225 89.6085 19.4225 88.4466C19.4482 87.2624 20.3967 86.3369 21.5364 86.3369H23.8615C24.1008 86.3369 24.3339 86.3772 24.5576 86.4555C24.6982 86.4144 24.7425 86.3819 24.7425 86.3819C25.0012 85.9238 25.0012 84.0172 25.0012 83.1019C25.0012 81.2527 24.5382 79.0228 23.7263 76.9528C23.3045 76.7141 22.9642 76.3529 22.7552 75.9158C21.3444 72.9705 19.4272 71.0678 17.8704 71.0678C16.277 71.0678 14.2641 73.1247 12.861 76.183C12.6318 76.6806 12.2294 77.0875 11.7338 77.3285C10.9996 79.315 10.5964 81.3565 10.5964 83.0995C10.5964 83.8684 10.5964 85.9098 10.8901 86.388H10.8909C10.894 86.388 10.96 86.4283 11.1449 86.4733C11.3865 86.3803 11.6398 86.333 11.9023 86.333H14.2322C15.3478 86.333 16.2747 87.2049 16.3437 88.3187L16.3608 88.3853L16.3476 88.4442C16.3476 89.6076 15.399 90.5539 14.2337 90.5539H11.9038C11.4416 90.5539 10.9949 90.4005 10.6274 90.1191C9.29664 89.8688 8.3598 89.2821 7.76615 88.3303C7.04676 87.1794 6.91391 85.6649 6.91391 83.098C6.91391 80.8457 7.43519 78.254 8.38142 75.7771C8.24236 75.2469 8.28897 74.6935 8.5197 74.1952C9.50632 72.0444 10.7603 70.2021 12.1461 68.8698C12.9082 68.1366 13.7262 67.5484 14.5831 67.119C14.904 66.368 15.4633 65.7534 16.1454 65.3643C16.2115 62.4439 17.0179 59.673 18.3409 57.3441C7.84063 61.9121 0.5 72.3551 0.5 84.5146C0.49767 99.273 11.3063 100 25.4593 100C27.0022 100 28.5855 99.9915 30.2014 99.9915H60.797C62.4067 99.9915 63.9922 100 65.5367 100C79.6889 100 90.5 99.2753 90.5 84.5177C90.5 72.1992 82.9629 61.6449 72.2443 57.1746L72.2427 57.1742Z" fill="url(#paint0_linear_52_170)"/>
<path d="M45.4969 58.8766C59.1792 58.8766 70.2653 38.3529 70.2653 24.7102C70.2653 11.0624 59.1778 0 45.4969 0C31.8194 0 20.7305 11.063 20.7305 24.7102C20.7297 38.3555 31.8212 58.8766 45.4969 58.8766ZM30.7007 13.6071C34.4002 24.8413 59.9558 19.7834 59.9558 19.7834C67.3167 19.2231 66.7837 29.3189 66.7752 29.4304C64.8307 40.9468 56.0443 55.0076 45.4971 55.0076C34.5534 55.0076 25.5018 39.8555 24.0301 28.1288C25.1861 18.1741 30.7003 13.6069 30.7003 13.6069L30.7007 13.6071Z" fill="url(#paint1_linear_52_170)"/>
<path d="M76.8441 73.7277C76.8441 75.5685 75.3486 77.0612 73.5027 77.0612C71.6576 77.0612 70.1621 75.5685 70.1621 73.7277C70.1621 71.887 71.6576 70.3942 73.5027 70.3942C75.3485 70.3942 76.8441 71.887 76.8441 73.7277Z" fill="url(#paint2_linear_52_170)"/>
<defs>
<linearGradient id="paint0_linear_52_170" x1="0.5" y1="77.504" x2="90.5" y2="77.504" gradientUnits="userSpaceOnUse">
<stop stop-color="#191E88"/>
<stop offset="1" stop-color="#00AC00"/>
</linearGradient>
<linearGradient id="paint1_linear_52_170" x1="20.7305" y1="29.4383" x2="70.2653" y2="29.4383" gradientUnits="userSpaceOnUse">
<stop stop-color="#191E88"/>
<stop offset="1" stop-color="#00AC00"/>
</linearGradient>
<linearGradient id="paint2_linear_52_170" x1="70.1621" y1="73.7277" x2="76.8441" y2="73.7277" gradientUnits="userSpaceOnUse">
<stop stop-color="#191E88"/>
<stop offset="1" stop-color="#00AC00"/>
</linearGradient>
</defs>
</svg>
