<svg width="96" height="100" viewBox="0 0 96 100" fill="none" xmlns="http://www.w3.org/2000/svg">
<path d="M94.6984 5.48005C95.8492 4.1115 95.7448 2.11148 94.489 0.84859C93.1289 -0.414259 91.1411 -0.204273 89.886 1.05931L84.5511 6.95347C83.2961 8.32203 81.5178 9.16423 79.6345 9.16423L68.5461 9.1635C66.7679 9.1635 65.3034 10.637 65.3034 12.4263C65.3034 14.2155 66.7679 15.689 68.5461 15.689H79.6345L66.0351 60.2124C53.1684 54.6338 38.7322 49.1603 29.0035 47.6867L27.434 28.9519H34.8616C36.9536 28.9519 38.6275 27.3733 38.6275 25.3733C38.6275 23.5841 37.2674 22.0048 35.3848 21.7948L16.9738 19.3741C15.405 19.1634 13.8353 19.5848 12.6846 20.637C11.6382 21.5841 11.0107 22.8477 11.0107 24.2155C11.0107 26.8469 13.3121 29.0576 16.1367 29.0576L20.8432 29.0569L22.4121 47.5818C9.75473 48.7404 -0.288112 59.8974 0.54876 73.1591C1.1763 83.474 8.60385 91.7896 18.1227 94.6314V96.6314C18.1227 98.4207 19.5872 100 21.4706 100H23.772C25.5502 100 27.1198 98.5265 27.1198 96.6314V95.7893H63.21V96.6314C63.21 98.4207 64.6745 100 66.5578 100H68.8592C70.6375 100 72.2071 98.5265 72.2071 96.6314V95.7893H72.6252H72.939C89.2578 95.4736 93.547 72.8434 78.7969 65.8965C76.7049 64.9494 74.5078 63.8965 72.3113 62.9493L87.1658 14.1104L94.6984 5.48005ZM35.1758 86.4221H27.0163C26.075 86.4221 25.2381 85.58 25.2381 84.6329C25.2381 83.6857 26.075 82.8436 27.0163 82.8436H28.6903L26.1794 76.8436C25.8657 76.8436 25.5519 76.9486 25.2381 76.9486C21.2628 76.9486 18.1251 73.7907 18.1251 69.7915C18.1251 65.7916 21.2635 62.6345 25.2381 62.6345C29.2135 62.6345 32.3512 65.7924 32.3512 69.7915C32.3512 72.1072 31.2004 74.2123 29.5265 75.475L32.665 82.8428H35.2802C36.2215 82.8428 37.0585 83.6849 37.0585 84.632C37.0585 85.5799 36.2215 86.422 35.1759 86.422L35.1758 86.4221Z" fill="url(#paint0_linear_52_161)"/>
<defs>
<linearGradient id="paint0_linear_52_161" x1="0.5" y1="50" x2="95.5" y2="50" gradientUnits="userSpaceOnUse">
<stop stop-color="#191E88"/>
<stop offset="1" stop-color="#00AC00"/>
</linearGradient>
</defs>
</svg>
