<svg width="232" height="8" viewBox="0 0 232 8" fill="none" xmlns="http://www.w3.org/2000/svg">
<rect x="0.25" y="3" width="223" height="2" fill="white"/>
<path d="M227.043 5.29289L226.336 6L227.75 7.41421L228.457 6.70711L227.043 5.29289ZM229.75 4L230.457 4.70711L231.164 4L230.457 3.29289L229.75 4ZM228.457 1.29289L227.75 0.585786L226.336 2L227.043 2.70711L228.457 1.29289ZM228.457 6.70711L230.457 4.70711L229.043 3.29289L227.043 5.29289L228.457 6.70711ZM230.457 3.29289L228.457 1.29289L227.043 2.70711L229.043 4.70711L230.457 3.29289ZM229.75 3H223.25V5H229.75V3Z" fill="white"/>
</svg>
