<svg width="38" height="38" viewBox="0 0 38 38" fill="none" xmlns="http://www.w3.org/2000/svg">
<path d="M24.0656 36.7333H23.2656C23.2656 37.0363 23.4368 37.3133 23.7079 37.4488C23.9789 37.5843 24.3032 37.5551 24.5456 37.3733L24.0656 36.7333ZM29.1323 32.9333L29.6123 32.2933C29.3278 32.0799 28.9367 32.0799 28.6523 32.2933L29.1323 32.9333ZM34.199 36.7333L33.719 37.3733C33.9614 37.5551 34.2857 37.5843 34.5567 37.4488C34.8278 37.3133 34.999 37.0363 34.999 36.7333H34.199ZM29.1323 28.3333C25.3768 28.3333 22.3323 25.2888 22.3323 21.5333H20.7323C20.7323 26.1725 24.4931 29.9333 29.1323 29.9333V28.3333ZM35.9323 21.5333C35.9323 25.2888 32.8878 28.3333 29.1323 28.3333V29.9333C33.7715 29.9333 37.5323 26.1725 37.5323 21.5333H35.9323ZM29.1323 14.7333C32.8878 14.7333 35.9323 17.7777 35.9323 21.5333H37.5323C37.5323 16.8941 33.7715 13.1333 29.1323 13.1333V14.7333ZM29.1323 13.1333C24.4931 13.1333 20.7323 16.8941 20.7323 21.5333H22.3323C22.3323 17.7777 25.3768 14.7333 29.1323 14.7333V13.1333ZM23.2656 26.5999V36.7333H24.8656V26.5999H23.2656ZM24.5456 37.3733L29.6123 33.5733L28.6523 32.2933L23.5856 36.0933L24.5456 37.3733ZM28.6523 33.5733L33.719 37.3733L34.679 36.0933L29.6123 32.2933L28.6523 33.5733ZM34.999 36.7333V26.5999H33.399V36.7333H34.999ZM37.5323 12.6666V3.79993H35.9323V12.6666H37.5323ZM34.199 0.466602H3.79896V2.0666H34.199V0.466602ZM0.465625 3.79993V34.1999H2.06563V3.79993H0.465625ZM3.79896 37.5333H20.2656V35.9333H3.79896V37.5333ZM0.465625 34.1999C0.465625 36.0409 1.95801 37.5333 3.79896 37.5333V35.9333C2.84167 35.9333 2.06563 35.1572 2.06563 34.1999H0.465625ZM3.79896 0.466602C1.95801 0.466602 0.465625 1.95899 0.465625 3.79993H2.06563C2.06563 2.84264 2.84167 2.0666 3.79896 2.0666V0.466602ZM37.5323 3.79993C37.5323 1.95899 36.0399 0.466602 34.199 0.466602V2.0666C35.1562 2.0666 35.9323 2.84264 35.9323 3.79993H37.5323ZM7.59896 12.1999H20.2656V10.5999H7.59896V12.1999ZM7.59896 19.7999H15.199V18.1999H7.59896V19.7999Z" fill="black"/>
</svg>
