<svg width="38" height="38" viewBox="0 0 38 38" fill="none" xmlns="http://www.w3.org/2000/svg">
<path d="M11.399 26.5999L10.6834 26.2422C10.5294 26.5502 10.5898 26.9221 10.8333 27.1656C11.0768 27.4091 11.4487 27.4695 11.7567 27.3155L11.399 26.5999ZM16.4656 16.4666L16.1079 15.7511C15.953 15.8285 15.8275 15.954 15.7501 16.1088L16.4656 16.4666ZM26.599 11.3999L27.3145 11.7577C27.4685 11.4497 27.4081 11.0777 27.1646 10.8342C26.9212 10.5908 26.5492 10.5304 26.2412 10.6844L26.599 11.3999ZM21.5323 21.5333L21.8901 22.2488C22.0449 22.1714 22.1704 22.0459 22.2478 21.891L21.5323 21.5333ZM18.999 35.9333C9.64694 35.9333 2.06563 28.352 2.06563 18.9999H0.465625C0.465625 29.2356 8.76328 37.5333 18.999 37.5333V35.9333ZM35.9323 18.9999C35.9323 28.352 28.351 35.9333 18.999 35.9333V37.5333C29.2346 37.5333 37.5323 29.2356 37.5323 18.9999H35.9323ZM18.999 2.0666C28.351 2.0666 35.9323 9.64791 35.9323 18.9999H37.5323C37.5323 8.76426 29.2346 0.466602 18.999 0.466602V2.0666ZM18.999 0.466602C8.76328 0.466602 0.465625 8.76426 0.465625 18.9999H2.06563C2.06563 9.64791 9.64694 2.0666 18.999 2.0666V0.466602ZM12.1145 26.9577L17.1812 16.8244L15.7501 16.1088L10.6834 26.2422L12.1145 26.9577ZM16.8234 17.1821L26.9567 12.1155L26.2412 10.6844L16.1079 15.7511L16.8234 17.1821ZM25.8834 11.0422L20.8167 21.1755L22.2478 21.891L27.3145 11.7577L25.8834 11.0422ZM21.1745 20.8177L11.0412 25.8844L11.7567 27.3155L21.8901 22.2488L21.1745 20.8177Z" fill="black"/>
</svg>
