<svg width="14" height="12" viewBox="0 0 14 12" fill="none" xmlns="http://www.w3.org/2000/svg">
<path d="M6.99844 10.8L6.64488 11.1535C6.84015 11.3488 7.15673 11.3488 7.35199 11.1535L6.99844 10.8ZM2.22686 6.02838L1.87331 6.38193H1.87331L2.22686 6.02838ZM6.22687 2.02838L5.87331 2.38193L6.22687 2.02838ZM6.99844 2.79995L6.64488 3.1535C6.84015 3.34877 7.15673 3.34877 7.35199 3.1535L6.99844 2.79995ZM7.77001 2.02838L7.41646 1.67482V1.67482L7.77001 2.02838ZM7.35199 10.4464L2.58042 5.67482L1.87331 6.38193L6.64488 11.1535L7.35199 10.4464ZM11.4165 5.67483L6.64488 10.4464L7.35199 11.1535L12.1236 6.38193L11.4165 5.67483ZM5.87331 2.38193L6.64488 3.1535L7.35199 2.4464L6.58042 1.67483L5.87331 2.38193ZM7.35199 3.1535L8.12356 2.38193L7.41646 1.67482L6.64488 2.4464L7.35199 3.1535ZM9.77001 0.699951C8.88726 0.699951 8.04066 1.05062 7.41646 1.67482L8.12356 2.38193C8.56023 1.94527 9.15247 1.69995 9.77001 1.69995V0.699951ZM12.0984 4.02838C12.0984 4.64592 11.8531 5.23816 11.4165 5.67483L12.1236 6.38193C12.7478 5.75773 13.0984 4.91113 13.0984 4.02838H12.0984ZM13.0984 4.02838C13.0984 2.19014 11.6083 0.699951 9.77001 0.699951V1.69995C11.056 1.69995 12.0984 2.74242 12.0984 4.02838H13.0984ZM4.22686 1.69995C4.8444 1.69995 5.43665 1.94527 5.87331 2.38193L6.58042 1.67483C5.95622 1.05062 5.10962 0.699951 4.22686 0.699951V1.69995ZM1.89844 4.02838C1.89844 2.74242 2.94091 1.69995 4.22686 1.69995V0.699951C2.38863 0.699951 0.898438 2.19014 0.898438 4.02838H1.89844ZM2.58042 5.67482C2.14375 5.23816 1.89844 4.64592 1.89844 4.02838H0.898438C0.898438 4.91113 1.24911 5.75773 1.87331 6.38193L2.58042 5.67482Z" fill="#111111"/>
</svg>
