<svg id="Capa_1" data-name="Capa 1" xmlns="http://www.w3.org/2000/svg" viewBox="0 0 172.95 208.95"><defs><style>.cls-1{fill:#7d7d7d;}</style></defs><path class="cls-1" d="M190.85,200.23,178.13,58.63a7.49,7.49,0,0,0-7.47-6.83H144.44V40a40,40,0,1,0-79.93,0V51.8H38.27a7.5,7.5,0,0,0-7.47,6.83L18,200.78A7.51,7.51,0,0,0,25.5,209h158a7.5,7.5,0,0,0,7.5-7.5A7.09,7.09,0,0,0,190.85,200.23ZM79.51,40a25,25,0,1,1,49.93,0V51.8H79.51ZM33.71,194,45.13,66.8H64.51V80.21a7.5,7.5,0,0,0,15,0V66.8h49.94V80.21a7.5,7.5,0,0,0,15,0V66.8h19.36L175.23,194H33.71Z" transform="translate(-18.01)"/></svg>