<svg id="Layer_1" data-name="Layer 1" xmlns="http://www.w3.org/2000/svg" viewBox="0 0 62.63 48.87"><defs><style>.cls-1{fill:#e3bf8a;}</style></defs><path class="cls-1" d="M473.51,231.2h0a1.24,1.24,0,0,1-.9-.39l-29.93-32.33a1.22,1.22,0,0,1-.06-1.6l11.2-14.08a1.21,1.21,0,0,1,1-.47h36.49a1.21,1.21,0,0,1,.91.41l12.48,13.89a1.23,1.23,0,0,1,0,1.66l-30.23,32.52a1.24,1.24,0,0,1-.9.39m-28.32-33.62,28.32,30.58,28.56-30.72-11.36-12.65H455.37Z" transform="translate(-442.34 -182.33)"/><path class="cls-1" d="M503.18,198.88H443.57a1.24,1.24,0,0,1,0-2.47h59.61a1.24,1.24,0,0,1,0,2.47" transform="translate(-442.34 -182.33)"/><path class="cls-1" d="M473.51,231.2a1.24,1.24,0,0,1-1.15-.77L453.63,184a1.23,1.23,0,0,1,2.28-.92l18.74,46.41a1.23,1.23,0,0,1-.68,1.6,1.25,1.25,0,0,1-.46.09" transform="translate(-442.34 -182.33)"/><path class="cls-1" d="M473.51,231.2a1.11,1.11,0,0,1-.44-.08,1.22,1.22,0,0,1-.71-1.59l17.75-46.41a1.23,1.23,0,0,1,2.3.88l-17.76,46.41a1.22,1.22,0,0,1-1.14.79" transform="translate(-442.34 -182.33)"/><path class="cls-1" d="M473,198.56a1.26,1.26,0,0,1-1-.49,1.24,1.24,0,0,1,.25-1.73l18.27-13.76a1.23,1.23,0,0,1,1.48,2l-18.27,13.76a1.2,1.2,0,0,1-.74.25" transform="translate(-442.34 -182.33)"/><path class="cls-1" d="M473,198.56a1.2,1.2,0,0,1-.74-.25L454,184.55a1.23,1.23,0,0,1,1.48-2l18.22,13.76a1.24,1.24,0,0,1,.24,1.73,1.23,1.23,0,0,1-1,.49" transform="translate(-442.34 -182.33)"/><path class="cls-1" d="M473.48,230.71a1.23,1.23,0,0,1-1.23-1.21l-.49-32.16A1.22,1.22,0,0,1,473,196.1h0a1.22,1.22,0,0,1,1.23,1.21l.49,32.15a1.23,1.23,0,0,1-1.21,1.25Z" transform="translate(-442.34 -182.33)"/></svg>