<svg id="Layer_1" data-name="Layer 1" xmlns="http://www.w3.org/2000/svg" viewBox="0 0 363.87 174.37"><defs><style>.cls-1{fill:#e3bf8a;}</style></defs><path class="cls-1" d="M319.63,278.61v9.28h-4.12v-5.38H295.84v5.38h-4.12v-9.28h2.43c1.94-1.87,3.05-3.87,3.27-7.67l.86-13.51H315.8v21.18Zm-18.13-7a11.91,11.91,0,0,1-2.47,7.1h12.61V261.34h-9.53Z" transform="translate(-291.72 -182.33)"/><path class="cls-1" d="M351.59,266.17c0,5.27-3.58,8.75-9.07,8.75H335v7.59h-4.2V257.43h11.68c5.49,0,9.07,3.47,9.07,8.74m-4.16,0c0-3-2-4.91-5.12-4.91H335v9.86h7.31c3.08,0,5.12-1.94,5.12-4.95" transform="translate(-291.72 -182.33)"/><path class="cls-1" d="M378.46,277.32H365l-2.3,5.19h-4.51l11.25-25.08h4.66l11.22,25.08h-4.56Zm-11.86-3.8h10.25l-5.13-11.86Z" transform="translate(-291.72 -182.33)"/><polygon class="cls-1" points="120.71 78.97 108.27 78.97 108.27 100.18 104.08 100.18 104.08 75.1 120.71 75.1 120.71 78.97"/><path class="cls-1" d="M420.88,270c0-7.81,5.19-13.08,12.93-13.08s12.91,5.27,12.91,13.08-5.2,13.08-12.91,13.08-12.93-5.27-12.93-13.08m21.61,0c0-5.48-3.52-9.21-8.68-9.21s-8.7,3.73-8.7,9.21,3.51,9.21,8.7,9.21,8.68-3.73,8.68-9.21" transform="translate(-291.72 -182.33)"/><polygon class="cls-1" points="192.01 96.28 192.01 105.56 187.89 105.56 187.89 100.18 166.82 100.18 166.82 75.1 170.97 75.1 170.97 96.28 184.12 96.28 184.12 75.1 188.28 75.1 188.28 96.28 192.01 96.28"/><polygon class="cls-1" points="221.89 96.35 221.89 100.18 203.22 100.18 203.22 75.1 221.67 75.1 221.67 78.9 207.37 78.9 207.37 85.6 221.06 85.6 221.06 89.32 207.37 89.32 207.37 96.35 221.89 96.35"/><polygon class="cls-1" points="255.57 75.1 255.57 100.18 251.37 100.18 251.37 89.39 238.29 89.39 238.29 100.18 234.1 100.18 234.1 75.1 238.29 75.1 238.29 85.49 251.37 85.49 251.37 75.1 255.57 75.1"/><polygon class="cls-1" points="290.36 75.1 290.36 100.18 286.16 100.18 286.16 89.39 273.08 89.39 273.08 100.18 268.89 100.18 268.89 75.1 273.08 75.1 273.08 85.49 286.16 85.49 286.16 75.1 290.36 75.1"/><path class="cls-1" d="M616.07,274c0,5.55-3.4,8.56-9.67,8.56h-11V257.43h4.19v8.17h6.84c6.24,0,9.64,3,9.64,8.35m-4.23,0c0-2.79-1.93-4.47-5.12-4.47h-7.17v9.1h7.17c3.12,0,5.12-1.79,5.12-4.63m11.76,8.53h-4.19V257.43h4.19Z" transform="translate(-291.72 -182.33)"/><polygon class="cls-1" points="363.87 96.35 363.87 100.18 345.2 100.18 345.2 75.1 363.66 75.1 363.66 78.9 349.36 78.9 349.36 85.6 363.05 85.6 363.05 89.32 349.36 89.32 349.36 96.35 363.87 96.35"/><polygon class="cls-1" points="90.7 125.31 90.7 150.39 86.44 150.39 86.44 129.28 73.47 129.28 73.47 150.39 69.2 150.39 69.2 125.31 90.7 125.31"/><path class="cls-1" d="M394.24,320.18c0-7.81,5.2-13.08,12.94-13.08s12.9,5.27,12.9,13.08-5.2,13.08-12.9,13.08-12.94-5.27-12.94-13.08m21.61,0c0-5.48-3.51-9.21-8.67-9.21s-8.71,3.73-8.71,9.21,3.51,9.21,8.71,9.21,8.67-3.73,8.67-9.21" transform="translate(-291.72 -182.33)"/><path class="cls-1" d="M456.37,328.82v9.28h-4.12v-5.38H432.58v5.38h-4.13v-9.28h2.44c1.94-1.87,3.05-3.87,3.26-7.67l.86-13.51h17.53v21.18Zm-18.13-7a11.78,11.78,0,0,1-2.48,7.09h12.62V311.54h-9.53Z" transform="translate(-291.72 -182.33)"/><path class="cls-1" d="M485,327.53H471.56l-2.3,5.19h-4.51L476,307.64h4.66l11.22,25.08h-4.56Zm-11.86-3.8h10.25l-5.13-11.86Z" transform="translate(-291.72 -182.33)"/><path class="cls-1" d="M523.12,316.38c0,5.27-3.59,8.75-9.07,8.75h-7.49v7.59h-4.19V307.64h11.68c5.48,0,9.07,3.47,9.07,8.74m-4.16,0c0-3-2-4.91-5.12-4.91h-7.32v9.86h7.32c3.08,0,5.12-1.94,5.12-4.95" transform="translate(-291.72 -182.33)"/><polygon class="cls-1" points="257.66 150.39 246.84 139.14 246.84 150.39 242.61 150.39 242.61 125.31 246.84 125.31 246.84 136.02 256.84 125.31 262.28 125.31 250.82 137.45 263.36 150.39 257.66 150.39"/><polygon class="cls-1" points="294.67 125.31 294.67 150.39 290.48 150.39 290.48 140.47 290.51 132.29 276.9 150.39 273.17 150.39 273.17 125.31 277.36 125.31 277.36 135.73 277.33 143.44 290.94 125.31 294.67 125.31"/><path class="cls-1" d="M423.08,356.7a1.23,1.23,0,0,1-.46-2.37c1.09-.44,27.71-10.9,101.65-8.24a1.23,1.23,0,0,1,1.19,1.27,1.21,1.21,0,0,1-1.28,1.19c-73.27-2.64-100.37,8-100.64,8.06a1.05,1.05,0,0,1-.46.09" transform="translate(-291.72 -182.33)"/><path class="cls-1" d="M473.51,231.2h0a1.24,1.24,0,0,1-.9-.39l-29.93-32.33a1.22,1.22,0,0,1-.06-1.6l11.2-14.08a1.21,1.21,0,0,1,1-.47h36.49a1.21,1.21,0,0,1,.91.41l12.48,13.89a1.23,1.23,0,0,1,0,1.66l-30.23,32.52a1.24,1.24,0,0,1-.9.39m-28.32-33.62,28.32,30.58,28.56-30.72-11.36-12.65H455.37Z" transform="translate(-291.72 -182.33)"/><path class="cls-1" d="M503.18,198.88H443.57a1.24,1.24,0,0,1,0-2.47h59.61a1.24,1.24,0,0,1,0,2.47" transform="translate(-291.72 -182.33)"/><path class="cls-1" d="M473.51,231.2a1.24,1.24,0,0,1-1.15-.77L453.63,184a1.23,1.23,0,0,1,2.28-.92l18.74,46.41a1.23,1.23,0,0,1-.68,1.6,1.25,1.25,0,0,1-.46.09" transform="translate(-291.72 -182.33)"/><path class="cls-1" d="M473.51,231.2a1.11,1.11,0,0,1-.44-.08,1.22,1.22,0,0,1-.71-1.59l17.75-46.41a1.23,1.23,0,0,1,2.3.88l-17.76,46.41a1.22,1.22,0,0,1-1.14.79" transform="translate(-291.72 -182.33)"/><path class="cls-1" d="M473,198.56a1.26,1.26,0,0,1-1-.49,1.24,1.24,0,0,1,.25-1.73l18.27-13.76a1.23,1.23,0,0,1,1.48,2l-18.27,13.76a1.2,1.2,0,0,1-.74.25" transform="translate(-291.72 -182.33)"/><path class="cls-1" d="M473,198.56a1.2,1.2,0,0,1-.74-.25L454,184.55a1.23,1.23,0,0,1,1.48-2l18.22,13.76a1.24,1.24,0,0,1,.24,1.73,1.23,1.23,0,0,1-1,.49" transform="translate(-291.72 -182.33)"/><path class="cls-1" d="M473.48,230.71a1.23,1.23,0,0,1-1.23-1.21l-.49-32.16A1.22,1.22,0,0,1,473,196.1h0a1.22,1.22,0,0,1,1.23,1.21l.49,32.15a1.23,1.23,0,0,1-1.21,1.25Z" transform="translate(-291.72 -182.33)"/></svg>